<svg id="Layer_1" data-name="Layer 1" xmlns="http://www.w3.org/2000/svg" viewBox="0 0 892.22 1024"><defs><style>.cls-1{fill:#57abff;}.cls-2{fill:#ebd9c9;}.cls-3{fill:#c18772;}.cls-4{fill:#d8a476;}.cls-5{fill:#1087ff;}.cls-6{fill:#55535a;}</style></defs><g id="carrier"><g id="Group_369" data-name="Group 369"><path id="Rectangle_1384" data-name="Rectangle 1384" class="cls-1" d="M530.55,180.21h-74V74.64a37,37,0,0,1,37-37h0a37,37,0,0,1,37,37Z" transform="translate(-65.89 0)"/><path id="Path_1758" data-name="Path 1758" class="cls-2" d="M493.53,564.06H877L770.37,228.7a69.52,69.52,0,0,0-66.26-48.48H283A69.52,69.52,0,0,0,216.7,228.7L110.1,564.06Z" transform="translate(-65.89 0)"/><path id="Path_1759" data-name="Path 1759" class="cls-2" d="M493.53,640.15H110.1L216.7,975.51A69.5,69.5,0,0,0,283,1024H704.08a69.5,69.5,0,0,0,66.27-48.46L877,640.18Z" transform="translate(-65.89 0)"/><path id="Path_1760" data-name="Path 1760" class="cls-1" d="M882.44,564.06H104.64a38.05,38.05,0,0,0-1.39,76.09H882.44a38.05,38.05,0,0,0,1.39-76.09Z" transform="translate(-65.89 0)"/><path id="Path_1761" data-name="Path 1761" class="cls-3" d="M493.53,283.7h0A26.27,26.27,0,0,1,519.8,310v0h0V440.49a26.27,26.27,0,0,1-26.27,26.26h0a26.26,26.26,0,0,1-26.26-26.26h0V310a26.26,26.26,0,0,1,26.26-26.26h0Z" transform="translate(-65.89 0)"/><path id="Path_1762" data-name="Path 1762" class="cls-3" d="M641.73,283.7h0A26.27,26.27,0,0,1,668,310v0h0V440.49a26.27,26.27,0,0,1-26.27,26.26h0a26.26,26.26,0,0,1-26.26-26.26h0V310a26.26,26.26,0,0,1,26.26-26.26h0Z" transform="translate(-65.89 0)"/><path id="Rectangle_1385" data-name="Rectangle 1385" class="cls-3" d="M345.37,466.75h0A26.25,26.25,0,0,1,319.1,440.5h0V310a26.26,26.26,0,0,1,26.22-26.3h0A26.27,26.27,0,0,1,371.58,310V440.49a26.27,26.27,0,0,1-26.22,26.26Z" transform="translate(-65.89 0)"/><path id="Path_1763" data-name="Path 1763" class="cls-3" d="M493.53,737.46h0a26.27,26.27,0,0,1,26.27,26.26h0V894.28a26.26,26.26,0,0,1-26.25,26.28h0a26.27,26.27,0,0,1-26.27-26.26V763.74a26.27,26.27,0,0,1,26.25-26.27Z" transform="translate(-65.89 0)"/><path id="Path_1764" data-name="Path 1764" class="cls-3" d="M641.73,737.46h0A26.27,26.27,0,0,1,668,763.72h0V894.28a26.27,26.27,0,0,1-26.26,26.28h0a26.26,26.26,0,0,1-26.26-26.26V763.74a26.27,26.27,0,0,1,26.25-26.27Z" transform="translate(-65.89 0)"/><path id="Rectangle_1386" data-name="Rectangle 1386" class="cls-3" d="M345.37,920.52h0a26.25,26.25,0,0,1-26.27-26.25h0V763.71a26.26,26.26,0,0,1,26.26-26.26h0a26.26,26.26,0,0,1,26.22,26.27V894.28A26.27,26.27,0,0,1,345.37,920.52Z" transform="translate(-65.89 0)"/><path id="Path_1765" data-name="Path 1765" class="cls-4" d="M114,644l16.72,52.62H864.11L880.82,644Z" transform="translate(-65.89 0)"/><rect id="Rectangle_1387" data-name="Rectangle 1387" class="cls-5" x="390.62" y="135.48" width="74.04" height="44.74"/><path id="Path_1766" data-name="Path 1766" class="cls-5" d="M882.44,564.06H848a46,46,0,0,1-45.27,38.05H714a46,46,0,0,0-45.28,38H882.37a38.06,38.06,0,0,0,1.4-76.1h-1.4Z" transform="translate(-65.89 0)"/></g><g id="Group_370" data-name="Group 370"><path id="Path_1767" data-name="Path 1767" class="cls-6" d="M327.25,551.13h1a12.35,12.35,0,1,0,.11-24.7h-1.11a12.35,12.35,0,0,0,0,24.7Z" transform="translate(-65.89 0)"/><path id="Path_1768" data-name="Path 1768" class="cls-6" d="M79.53,576.84a50.43,50.43,0,0,0,46.76,50.22L230.22,954a81.58,81.58,0,0,0,78,57.07H729.35a81.55,81.55,0,0,0,78-57.07l104-327a50.34,50.34,0,0,0,0-100.43L807.44,199.68a81.57,81.57,0,0,0-78-57.08H568.16V49.37a49.37,49.37,0,0,0-98.74,0v93.22H308.28a81.59,81.59,0,0,0-78,57.09l-104,327a50.42,50.42,0,0,0-46.75,50.17ZM783.89,946.53a57,57,0,0,1-54.52,39.84H308.25a57,57,0,0,1-54.43-39.84L152.31,627.2H885.43ZM494.07,49.37a24.68,24.68,0,0,1,49.31-2.23v95.45H494.07ZM253.69,207.16a57,57,0,0,1,54.49-39.88H729.3a57,57,0,0,1,54.5,39.88L885.3,526.44h-494a12.35,12.35,0,0,0,0,24.7H907.64a25.71,25.71,0,0,1,0,51.41H129.92a25.71,25.71,0,0,1,0-51.41H264.06a12.35,12.35,0,1,0,0-24.7H152.27Z" transform="translate(-65.89 0)"/><path id="Path_1769" data-name="Path 1769" class="cls-6" d="M518.78,453.82a38.63,38.63,0,0,0,38.56-38.6V403.7a12.35,12.35,0,1,0-24.69-.9q0,.39,0,.78V415.1a13.91,13.91,0,0,1-27.81.85c0-.28,0-.56,0-.85V284.54a13.91,13.91,0,0,1,27.81,0h0v72.64a12.35,12.35,0,0,0,24.69.12V284.68a38.61,38.61,0,1,0-77.22-.16h0V415.21A38.65,38.65,0,0,0,518.78,453.82Z" transform="translate(-65.89 0)"/><path id="Path_1770" data-name="Path 1770" class="cls-6" d="M667,453.82a38.64,38.64,0,0,0,38.66-38.61V284.65a38.62,38.62,0,0,0-77.23-.17h0V415.21A38.66,38.66,0,0,0,667,453.81ZM653.11,284.68a13.92,13.92,0,0,1,27.82,0V415.24a13.92,13.92,0,0,1-27.82.85c0-.28,0-.56,0-.85Z" transform="translate(-65.89 0)"/><path id="Path_1771" data-name="Path 1771" class="cls-6" d="M370.6,453.82a38.64,38.64,0,0,0,38.61-38.6V284.66a38.62,38.62,0,0,0-77.23-.17h0V415.21A38.66,38.66,0,0,0,370.6,453.82ZM356.7,284.68a13.92,13.92,0,0,1,27.82,0V415.24a13.92,13.92,0,0,1-27.82.85c0-.28,0-.56,0-.85Z" transform="translate(-65.89 0)"/><path id="Path_1772" data-name="Path 1772" class="cls-6" d="M518.78,699.83a38.66,38.66,0,0,0-38.61,38.63V869a38.61,38.61,0,0,0,77.22.16V738.46A38.64,38.64,0,0,0,518.78,699.83ZM532.69,869a13.92,13.92,0,0,1-27.82,0V738.43a13.92,13.92,0,0,1,27.82,0Z" transform="translate(-65.89 0)"/><path id="Path_1773" data-name="Path 1773" class="cls-6" d="M667,699.83a38.66,38.66,0,0,0-38.63,38.63V869a38.65,38.65,0,0,0,77.29.1h0V738.46A38.66,38.66,0,0,0,667,699.83ZM680.91,869a13.91,13.91,0,0,1-27.81,0V738.43a13.91,13.91,0,0,1,27.81,0Z" transform="translate(-65.89 0)"/><path id="Path_1774" data-name="Path 1774" class="cls-6" d="M370.6,699.83A38.66,38.66,0,0,0,332,738.46V869a38.61,38.61,0,0,0,77.22.16h0V738.46A38.65,38.65,0,0,0,370.6,699.83ZM384.52,869a13.92,13.92,0,0,1-27.82,0V738.43a13.92,13.92,0,0,1,27.82,0Z" transform="translate(-65.89 0)"/></g></g></svg>