<svg id="Layer_1" data-name="Layer 1" xmlns="http://www.w3.org/2000/svg" viewBox="0 0 1024 567.51"><defs><style>.cls-1{fill:#d8a476;}.cls-2{fill:#c18772;}.cls-3{fill:#90d986;}.cls-4{fill:#6cc35c;}.cls-5{fill:#5bac50;}.cls-6{fill:#55535a;}</style></defs><g id="food"><g id="Group_356" data-name="Group 356"><path id="Path_1683" data-name="Path 1683" class="cls-1" d="M800.41,424.77a2.33,2.33,0,0,1-1.78-2c-1.28-11.74-12.89-82.75-111-70.2a91.56,91.56,0,0,0-98.15-57.12,55.22,55.22,0,0,1-35.41-8.73,123.73,123.73,0,0,0-66.9-21.32h0a123.8,123.8,0,0,0-66.93,21.27,55.09,55.09,0,0,1-35.41,8.72,91.56,91.56,0,0,0-98.11,57.18h0c-98.11-12.57-109.75,58.47-111,70.2a2.33,2.33,0,0,1-1.78,2c-72.5,18.73-57.34,93.65-57.34,93.65H857.75S873,443.45,800.41,424.77Z" transform="translate(0 -228.24)"/><path id="Path_1684" data-name="Path 1684" class="cls-2" d="M858.11,488.25h0l-.07-.41c-.17-1.28-.36-2.41-.59-3.64a8.21,8.21,0,0,0-.21-1.1c-.19-.93-.38-1.85-.6-2.81-.12-.48-.2-.94-.32-1.4-.28-1.14-.59-2.26-.93-3.41-.17-.57-.34-1.14-.53-1.71-.26-.78-.51-1.57-.79-2.35s-.62-1.72-1-2.56-.59-1.53-.92-2.28-.58-1.28-.87-2-.78-1.6-1.18-2.39-.94-1.79-1.43-2.69c-.35-.61-.71-1.28-1.09-1.86s-.8-1.28-1.28-2c-.66-1-1.35-2-2.08-3-.46-.64-1-1.28-1.44-1.89l-.53-.68h0a76.44,76.44,0,0,0-41.94-25.36,2.36,2.36,0,0,1-1.77-2c-1.28-11.68-12.8-82.77-111-70.21a91,91,0,0,0-67.61-56,195.1,195.1,0,0,1,34.15,67.84,42.24,42.24,0,0,0,21.76,28.16l.84.43a30.26,30.26,0,0,1-13.91,57.13H132a90.7,90.7,0,0,0-15.36,68.28H857.77A100.31,100.31,0,0,0,858.11,488.25Z" transform="translate(0 -228.24)"/><path id="Path_1685" data-name="Path 1685" class="cls-3" d="M894.43,529.44a41.87,41.87,0,0,0-41.21-34.5h-732A41.86,41.86,0,0,0,80,529.44L44,731.51H930.48Z" transform="translate(0 -228.24)"/><path id="Path_1686" data-name="Path 1686" class="cls-4" d="M571.6,649.75c-240.08-99.07-420.66-105-494.93-102L43.92,731.51H930.41l-17.67-99.12C822.82,678.36,704.77,704.71,571.6,649.75Z" transform="translate(0 -228.24)"/><path id="Path_1687" data-name="Path 1687" class="cls-5" d="M945.4,731.51H29a29,29,0,0,0-29,29H0v35.24H974.34V760.48a29,29,0,0,0-28.93-29Z" transform="translate(0 -228.24)"/></g><g id="Group_357" data-name="Group 357"><path id="Path_1688" data-name="Path 1688" class="cls-6" d="M799.54,353.77A69.82,69.82,0,0,1,824,399.05a14.59,14.59,0,0,0,10.85,12.55,65.4,65.4,0,0,1,35.55,21.25,12.2,12.2,0,0,0,20-14,12,12,0,0,0-.76-1l-.26-.33a86.77,86.77,0,0,0-42.13-27.69,92.6,92.6,0,0,0-32.57-55.17,113.09,113.09,0,0,0-81.92-20.12,104.36,104.36,0,0,0-107-56.18,43,43,0,0,1-27.56-6.82,127.92,127.92,0,0,0-147.2,0,43,43,0,0,1-27.55,6.82A103,103,0,0,0,316.6,314.54a113.14,113.14,0,0,0-82,20.1A92.48,92.48,0,0,0,202,389.79a88,88,0,0,0-39.24,24.32,12.2,12.2,0,1,0,18,16.42h0a66.68,66.68,0,0,1,33.58-18.9,14.63,14.63,0,0,0,10.86-12.49,69.78,69.78,0,0,1,24.44-45.29c16.92-13.38,41.44-18.11,72.88-14.08a12.24,12.24,0,0,0,13.08-8.1,79.2,79.2,0,0,1,85.52-49A67.61,67.61,0,0,0,464.41,272a103.53,103.53,0,0,1,120.43,0,67.66,67.66,0,0,0,43.26,10.7,79.18,79.18,0,0,1,85.46,48.9,12.22,12.22,0,0,0,13.1,8.17C758.08,335.64,782.6,340.44,799.54,353.77Z" transform="translate(0 -228.24)"/><path id="Path_1689" data-name="Path 1689" class="cls-6" d="M313.1,401.39a12.2,12.2,0,1,0,19.39,14.8q.27-.35.51-.72a66.74,66.74,0,0,1,51.73-28.16,12.21,12.21,0,0,0-.83-24.41,3.22,3.22,0,0,0-.76,0,90.46,90.46,0,0,0-70.05,38.4Z" transform="translate(0 -228.24)"/><path id="Path_1690" data-name="Path 1690" class="cls-6" d="M666.07,363a12.22,12.22,0,0,0-2.35,24.32h.75a66.73,66.73,0,0,1,51.73,28.16,12.21,12.21,0,1,0,19.95-14.08h0A90.49,90.49,0,0,0,666.06,363Z" transform="translate(0 -228.24)"/><path id="Path_1691" data-name="Path 1691" class="cls-6" d="M297.63,696.47a12,12,0,0,0-4.41-1.82,12.2,12.2,0,0,0-14.37,9.57h0a12.84,12.84,0,0,0-.23,2.4,12.61,12.61,0,0,0,.23,2.37,11.93,11.93,0,0,0,.7,2.27,13.94,13.94,0,0,0,1.14,2.12,11.25,11.25,0,0,0,1.52,1.85,13.62,13.62,0,0,0,1.85,1.54,12.93,12.93,0,0,0,2.08,1.1,10.88,10.88,0,0,0,2.3.69,11.33,11.33,0,0,0,4.78,0,10.08,10.08,0,0,0,2.27-.69,12.41,12.41,0,0,0,2.14-1.11,15.66,15.66,0,0,0,1.81-1.54,10.1,10.1,0,0,0,1.53-1.86,12.13,12.13,0,0,0,1.84-4.39,12.5,12.5,0,0,0,.2-2.37A12.18,12.18,0,0,0,297.63,696.47Z" transform="translate(0 -228.24)"/><path id="Path_1692" data-name="Path 1692" class="cls-6" d="M982.86,694.34h-4.8l-34.21-192a54,54,0,0,0-53.23-44.59h-732a54,54,0,0,0-53.24,44.58l-34.21,192H66.36a41.2,41.2,0,0,0-41.21,41.18v0h0v35.22A12.21,12.21,0,0,0,37.34,783h974.45A12.21,12.21,0,0,0,1024,770.76h0V735.55A41.21,41.21,0,0,0,982.86,694.34Zm16.77,64.19h-950v-23a16.78,16.78,0,0,1,16.76-16.75H226a12.2,12.2,0,0,0,0-24.4H96l33.4-187.76a29.6,29.6,0,0,1,29.2-24.46H890.68a29.62,29.62,0,0,1,29.19,24.47l33.45,187.73H356.62a12.2,12.2,0,0,0,0,24.39H982.92a16.78,16.78,0,0,1,16.77,16.76Z" transform="translate(0 -228.24)"/><path id="Path_1693" data-name="Path 1693" class="cls-6" d="M760.12,667.9a410.37,410.37,0,0,0,145.52-27.39,12.2,12.2,0,1,0-8.6-22.84A374.56,374.56,0,0,1,613.7,613.5c-196.18-81-353.28-100.83-450.46-103.22a12.2,12.2,0,1,0-.62,24.4c95.16,2.35,249.07,21.83,441.77,101.37A405.43,405.43,0,0,0,760.12,667.9Z" transform="translate(0 -228.24)"/></g></g></svg>