<svg id="Layer_1" data-name="Layer 1" xmlns="http://www.w3.org/2000/svg" viewBox="0 0 1024 901.38"><defs><style>.cls-1{fill:#fff;}.cls-2{fill:#ebd9c9;}.cls-3{fill:#d8a476;}.cls-4{fill:#57abff;}.cls-5{fill:#55535a;}</style></defs><g id="furniture"><g id="Group_433" data-name="Group 433"><path id="Path_3156" data-name="Path 3156" class="cls-1" d="M493.11,181.78l-354,227.51V969.2h708V409.29Z" transform="translate(0 -72.56)"/><path id="Path_3157" data-name="Path 3157" class="cls-2" d="M347.5,488.75c1.65,1.19,2.69,1.79,2.69,1.79a55.69,55.69,0,0,0-8.67,6.62c-39.88,36.48,1.61,86.26,54,73.12a65.71,65.71,0,0,0,40.76-39.61H549.93a59.28,59.28,0,0,0,40.75,39.61c51.35,16.89,93.92-36.65,54-73.12a55.69,55.69,0,0,0-8.67-6.62s1-.6,2.69-1.79Z" transform="translate(0 -72.56)"/><path id="Path_3158" data-name="Path 3158" class="cls-3" d="M493.11,605.84h0A177.87,177.87,0,0,0,315.26,783.71V969.15H671V783.71A177.86,177.86,0,0,0,493.11,605.84Z" transform="translate(0 -72.56)"/><path id="Path_3159" data-name="Path 3159" class="cls-1" d="M636.05,442.43a56.25,56.25,0,0,0,8.67-6.61c39.88-36.49-7.7-100.95-54.05-73.13a68.6,68.6,0,0,0-28.29,39.61H423.81a68.63,68.63,0,0,0-28.31-39.61c-46.33-27.81-93.91,36.65-54,73.13a56.25,56.25,0,0,0,8.67,6.61,56.31,56.31,0,0,0-8.67,6.62c-39.88,36.48,7.7,100.95,54,73.12a68.64,68.64,0,0,0,28.31-39.6H562.33a68.61,68.61,0,0,0,28.29,39.6c46.35,27.8,93.93-36.66,54-73.12A55.9,55.9,0,0,0,636.05,442.43Z" transform="translate(0 -72.56)"/><path id="Path_3160" data-name="Path 3160" class="cls-4" d="M493.11,92.57,0,409.41l41.71,62.44L493.15,181.77,944.54,471.86l41.71-62.43Z" transform="translate(0 -72.56)"/><path id="Path_3161" data-name="Path 3161" class="cls-2" d="M139.09,409.26v64.92l354-230.27,354,230.27V409.26l-354-227.5Z" transform="translate(0 -72.56)"/></g><path class="cls-5" d="M531,949a12.46,12.46,0,0,0,0,24.91h5.64a12.46,12.46,0,0,0,0-24.91Z" transform="translate(0 -72.56)"/><path class="cls-5" d="M164.52,451.8a12.46,12.46,0,0,0-12.45,12.45V961.49a12.46,12.46,0,0,0,12.45,12.45H436.39a12.46,12.46,0,0,0,0-24.91H353.11v-173c0-91.19,74.19-165.39,165.39-165.39s165.39,74.2,165.39,165.39V949H622a12.46,12.46,0,0,0,0,24.91H872.48a12.46,12.46,0,0,0,12.45-12.45V464.25a12.45,12.45,0,1,0-24.9,0V949H708.79v-173c0-104.93-85.36-190.29-190.29-190.29S328.2,671.13,328.2,776.06V949H177V464.25A12.45,12.45,0,0,0,164.52,451.8Z" transform="translate(0 -72.56)"/><path class="cls-5" d="M351.76,509.75c10.12,13.55,26.94,24.08,46.09,24.08a56.91,56.91,0,0,0,29.51-8.6c13.13-7.88,23.37-20.58,30.54-37.82H579.1c7.17,17.24,17.41,29.94,30.54,37.82,30.39,18.25,60.49,4.77,75.6-15.48,14.69-19.71,19.28-51.08-4.1-74.92,23.38-23.84,18.79-55.22,4.1-74.92-15.11-20.25-45.21-33.73-75.6-15.49-13.13,7.88-23.37,20.58-30.54,37.82H457.9c-7.17-17.24-17.42-29.94-30.54-37.82-30.4-18.24-60.49-4.76-75.6,15.49-14.69,19.7-19.28,51.08,4.1,74.92C332.48,458.67,337.07,490,351.76,509.75Zm20-134.95c8.25-11.07,24.41-20.07,42.81-9,9.95,6,17.65,17,22.89,32.84a12.45,12.45,0,0,0,11.82,8.54h138.5a12.45,12.45,0,0,0,11.82-8.54c5.24-15.82,12.94-26.86,22.89-32.84,18.4-11,34.56-2,42.81,9,9,12.11,11.43,30.48-3.6,44.22a45.48,45.48,0,0,1-6.54,5.06,12.49,12.49,0,0,0,0,21.5,44.22,44.22,0,0,1,6.55,5.05c15,13.74,12.63,32.12,3.6,44.23-8.25,11.06-24.41,20.07-42.81,9-10-6-17.66-17-22.89-32.83a12.45,12.45,0,0,0-11.82-8.54H449.25a12.45,12.45,0,0,0-11.82,8.54c-5.24,15.81-12.94,26.86-22.89,32.83-18.39,11-34.56,2-42.81-9-9-12.11-11.43-30.49,3.6-44.23a45.34,45.34,0,0,1,6.48-5h0a12.49,12.49,0,0,0,.07-21.54,45,45,0,0,1-6.55-5.06C360.3,405.28,362.69,386.91,371.73,374.8Z" transform="translate(0 -72.56)"/><path class="cls-5" d="M56.76,471.16a12.46,12.46,0,0,0,17.09,3.57L518.5,189,963.15,474.73a12.44,12.44,0,0,0,17.09-3.57l41.67-62.43a12.46,12.46,0,0,0-3.63-17.39l-493-316.81a12.47,12.47,0,0,0-13.46,0l-493,316.81a12.46,12.46,0,0,0-3.63,17.39ZM518.5,99.81,994.16,405.44l-27.84,41.72L525.23,163.74a12.48,12.48,0,0,0-13.46,0L70.68,447.16,42.84,405.44Z" transform="translate(0 -72.56)"/></g></svg>