<svg id="Layer_1" data-name="Layer 1" xmlns="http://www.w3.org/2000/svg" viewBox="0 0 750.32 1024"><defs><style>.cls-1{fill:#fff;}.cls-2{fill:#fcf5f0;}.cls-3{fill:#ebd9c9;}.cls-4{fill:#e6e6e6;}.cls-5{fill:#57abff;}.cls-6{fill:#d8a476;}.cls-7{fill:#1087ff;}.cls-8{fill:#55535a;}</style></defs><g id="grooming"><g id="Group_436" data-name="Group 436"><rect id="Rectangle_1542" data-name="Rectangle 1542" class="cls-1" x="483.08" y="130.51" width="60.26" height="96.78"/><path id="Path_3166" data-name="Path 3166" class="cls-2" d="M724.76,268.36a42.65,42.65,0,0,0-41.15-41.07h-67.1a42.64,42.64,0,0,0-41.15,41.07l-8.85,127.9H733.74Z" transform="translate(-136.84)"/><path id="Path_3167" data-name="Path 3167" class="cls-2" d="M577.5,100.37h0a30.11,30.11,0,0,1,30.12-30.12h144a44.23,44.23,0,0,1,44.23,44.23h0v16.07H607.66a30.12,30.12,0,0,1-30.16-30.09Z" transform="translate(-136.84)"/><path id="Path_3168" data-name="Path 3168" class="cls-3" d="M566.44,396.25H733.67L730,343.71H570.1Z" transform="translate(-136.84)"/><rect id="Rectangle_1543" data-name="Rectangle 1543" class="cls-4" x="483.08" y="130.51" width="60.26" height="42.27"/><path id="Path_3169" data-name="Path 3169" class="cls-2" d="M511.83,381H721.4a109,109,0,0,1,108.36,97,3738.46,3738.46,0,0,1,19.09,456.69A90.49,90.49,0,0,1,758.41,1024H490.82Z" transform="translate(-136.84)"/><path id="Path_3170" data-name="Path 3170" class="cls-1" d="M833.39,512.8H727.24A77.2,77.2,0,0,0,650,590V795.31a77.2,77.2,0,0,0,77.19,77.22h122C849.32,716.81,841.45,595.79,833.39,512.8Z" transform="translate(-136.84)"/><path id="Path_3171" data-name="Path 3171" class="cls-3" d="M692.71,975H672.93a61.82,61.82,0,0,1-61.81-61.83c0-1.77.08-3.55.23-5.31L654,414.76A86.88,86.88,0,0,0,647.8,381h-136l-21,643h255A53.33,53.33,0,0,0,692.71,975Z" transform="translate(-136.84)"/><path id="Path_3172" data-name="Path 3172" class="cls-3" d="M572.53,308.92l-6.09,87.33h85.83C642.94,349.53,597,321,572.53,308.92Z" transform="translate(-136.84)"/><path id="Path_3173" data-name="Path 3173" class="cls-5" d="M541.21,308a167.35,167.35,0,0,1-125.11-124H324.43A167.35,167.35,0,0,1,199.32,308a83.1,83.1,0,0,0-62.19,87.41l52.14,592A40,40,0,0,0,229.15,1024H511.44a40,40,0,0,0,39.87-36.52l52.15-592A83.08,83.08,0,0,0,541.21,308Z" transform="translate(-136.84)"/><path id="Path_3174" data-name="Path 3174" class="cls-1" d="M151.44,558,171.67,787.6A73.58,73.58,0,0,0,245,854.73H495.63a73.57,73.57,0,0,0,73.3-67.13L589.15,558a166.51,166.51,0,0,0-88.26-162.42,298.27,298.27,0,0,0-261.17,0A166.54,166.54,0,0,0,151.44,558Z" transform="translate(-136.84)"/><ellipse id="Ellipse_115" data-name="Ellipse 115" class="cls-6" cx="233.41" cy="680.69" rx="90.14" ry="78.28"/><circle id="Ellipse_116" data-name="Ellipse 116" class="cls-6" cx="233.4" cy="504.9" r="34.2"/><circle id="Ellipse_117" data-name="Ellipse 117" class="cls-6" cx="116.2" cy="546.99" r="34.2"/><circle id="Ellipse_118" data-name="Ellipse 118" class="cls-6" cx="354" cy="546.98" r="34.2"/><path id="Path_3175" data-name="Path 3175" class="cls-7" d="M541.21,308a170.83,170.83,0,0,1-101.33-69.8h0a156,156,0,0,1-23.81-54.15H324.4a155.63,155.63,0,0,1-23.81,54.15h45.23A74.42,74.42,0,0,1,408,271.09a194.86,194.86,0,0,0,117,81.5s33.83,11.05,29.26,71.11L495.74,949.8a25.27,25.27,0,0,1-24.54,22.56H327.6a39.46,39.46,0,0,0-38.77,46.7l.92,4.94H511.39a40,40,0,0,0,39.87-36.52l52.14-592A83.07,83.07,0,0,0,541.21,308Z" transform="translate(-136.84)"/><path id="Path_3176" data-name="Path 3176" class="cls-4" d="M552.69,438.1,506.42,853.87a73.51,73.51,0,0,0,62.44-66.24l20.22-229.58A167.54,167.54,0,0,0,552.69,438.1Z" transform="translate(-136.84)"/><path id="Path_3177" data-name="Path 3177" class="cls-1" d="M410.24,201.55h-80a35.75,35.75,0,0,1-35.75-35.75v0l-6.18-92.34a35.75,35.75,0,0,1,35.76-35.75h92.34a35.76,35.76,0,0,1,35.76,35.75h0L446,165.78a35.76,35.76,0,0,1-35.74,35.77Z" transform="translate(-136.84)"/><path id="Path_3178" data-name="Path 3178" class="cls-4" d="M416.42,37.75H392a67.88,67.88,0,0,1,12.4,49.85l-4.24,60.51a26.54,26.54,0,0,1-26.54,24.73h-11a26.54,26.54,0,0,0-26.54,26.54h0v2.19h74.18A35.75,35.75,0,0,0,446,165.82v0l6.18-92.34A35.75,35.75,0,0,0,416.42,37.75Z" transform="translate(-136.84)"/></g><g id="Group_437" data-name="Group 437"><path id="Path_3179" data-name="Path 3179" class="cls-8" d="M221.42,270.81a95.34,95.34,0,0,0-71.36,100.43l34.55,392.14h0l17.61,199.84A52.08,52.08,0,0,0,254.39,1011H536.68a52.09,52.09,0,0,0,52.17-47.78l37.83-429.44v-.11L641,371.19a95.33,95.33,0,0,0-71.35-100.43,156.42,156.42,0,0,1-108.1-89.92,48,48,0,0,0,22.08-40l6.15-92V48.1A48.14,48.14,0,0,0,441.69,0H349.35a48.15,48.15,0,0,0-48.11,48.1v.82l6.15,92a48,48,0,0,0,22.08,40A156.34,156.34,0,0,1,221.42,270.81Zm342.84,690.3a27.52,27.52,0,0,1-27.58,25.27H254.39a27.51,27.51,0,0,1-27.56-25.27L214.52,821.5a85.7,85.7,0,0,0,55.69,20.22H520.87a85.76,85.76,0,0,0,55.69-20.22ZM353.12,188.48c.81,0,1.61.12,2.41.12H376a12.35,12.35,0,1,0,0-24.69H355.53a23.43,23.43,0,0,1-23.4-23.42v-.82L326,47.78a23.43,23.43,0,0,1,23.4-23h92.34a23.45,23.45,0,0,1,23.41,23L459,139.67v.82a23.42,23.42,0,0,1-23.4,23.42h-8.73a12.35,12.35,0,1,0,0,24.69h8.73c.81,0,1.6-.07,2.41-.12A180.31,180.31,0,0,0,563.42,294.7a70.69,70.69,0,0,1,53.08,74.38l-6.32,71.58a177.11,177.11,0,0,0-78.27-81.3,315.78,315.78,0,0,0-224-19.44,12.35,12.35,0,0,0,7,23.7,266.31,266.31,0,0,1,80.08-11.08h1.35A269.77,269.77,0,0,1,520.5,381.26a153.57,153.57,0,0,1,81.67,150.3L582,761.22h0a60.91,60.91,0,0,1-61,55.85H270.26a60.89,60.89,0,0,1-61-55.83l-20.22-229.6h0a154.19,154.19,0,0,1,45.82-124.41,12.36,12.36,0,1,0-17.26-17.69h0a179,179,0,0,0-36.56,51.26L174.73,369a70.78,70.78,0,0,1,53.08-74.38A180.3,180.3,0,0,0,353.12,188.47Z" transform="translate(-136.84)"/><path id="Path_3180" data-name="Path 3180" class="cls-8" d="M263.72,383.32a12.33,12.33,0,0,0,5.77-1.44l1.26-.63a12.35,12.35,0,0,0-11.5-21.87L258,360a12.36,12.36,0,0,0,5.79,23.28Z" transform="translate(-136.84)"/><path id="Path_3181" data-name="Path 3181" class="cls-8" d="M322.88,607.55a12.35,12.35,0,0,0-17,3.9h0A82.81,82.81,0,0,0,293,655.4c0,50,46,90.62,102.5,90.62S498,705.36,498,655.4s-46-90.63-102.49-90.63a113.19,113.19,0,0,0-51.62,12.29,12.36,12.36,0,0,0,11.38,22,88.23,88.23,0,0,1,40.29-9.54c42.89,0,77.79,29.57,77.79,65.93s-34.9,65.92-77.79,65.92S317.8,691.74,317.8,655.4a57.25,57.25,0,0,1,9-30.82,12.36,12.36,0,0,0-4-17Z" transform="translate(-136.84)"/><path id="Path_3182" data-name="Path 3182" class="cls-8" d="M395.53,526.15A46.53,46.53,0,1,0,349,479.62,46.54,46.54,0,0,0,395.53,526.15Zm0-68.38a21.85,21.85,0,1,1-21.83,21.86h0A21.87,21.87,0,0,1,395.53,457.77Z" transform="translate(-136.84)"/><path id="Path_3183" data-name="Path 3183" class="cls-8" d="M278.33,568.23A46.53,46.53,0,1,0,231.8,521.7h0A46.6,46.6,0,0,0,278.33,568.23Zm0-68.37A21.84,21.84,0,1,1,256.5,521.7,21.84,21.84,0,0,1,278.33,499.86Z" transform="translate(-136.84)"/><path id="Path_3184" data-name="Path 3184" class="cls-8" d="M516.13,568.23a46.53,46.53,0,1,0-46.54-46.53A46.53,46.53,0,0,0,516.13,568.23Zm0-68.37a21.84,21.84,0,1,1-21.84,21.84A21.84,21.84,0,0,1,516.13,499.86Z" transform="translate(-136.84)"/><path id="Path_3185" data-name="Path 3185" class="cls-8" d="M645.21,135.13a12.36,12.36,0,0,0-12.34,12.35v43a55.83,55.83,0,0,0-44.54,51.71A12.35,12.35,0,0,0,613,243.88a30.46,30.46,0,0,1,28.83-29.59h67.12a30.45,30.45,0,0,1,28.82,29.61l7.21,99.42H679.29a12.36,12.36,0,1,0,0,24.71h67.42a96.58,96.58,0,0,1,96,86c.75,6.67,1.49,13.72,2.24,21.05H752.51A89.72,89.72,0,0,0,663,564.67V770a89.72,89.72,0,0,0,89.56,89.57h56.93a12.35,12.35,0,0,0,0-24.7H752.51A64.93,64.93,0,0,1,687.65,770V564.72a64.92,64.92,0,0,1,64.86-64.86H847.4a3887.46,3887.46,0,0,1,14.36,409.39,78.42,78.42,0,0,1-78.09,77.09H629a12.36,12.36,0,0,0,0,24.71H783.67A103.22,103.22,0,0,0,886.45,909.58a3747.34,3747.34,0,0,0-19.16-458.21,121.23,121.23,0,0,0-97.48-105.78l-7.5-103.38a55.85,55.85,0,0,0-44.53-51.72V117.56h57.13a12.35,12.35,0,1,0,0-24.7H633a17.79,17.79,0,0,1-.18-35.57H776.91a31.9,31.9,0,0,1,31.85,31.85V105.2a12.35,12.35,0,1,0,24.69,0V89.14A56.59,56.59,0,0,0,776.91,32.6H633a42.48,42.48,0,1,0,0,85h60.21v72H657.61V147.42A12.36,12.36,0,0,0,645.21,135.13Z" transform="translate(-136.84)"/></g></g></svg>