<svg id="Layer_1" data-name="Layer 1" xmlns="http://www.w3.org/2000/svg" viewBox="0 0 1024 813.57"><defs><style>.cls-1{fill:#90d986;}.cls-2{fill:#57abff;}.cls-3{fill:#fff;}.cls-4{fill:#6cc35c;}.cls-5{fill:#f5f5f9;}.cls-6{fill:#d8a476;}.cls-7{fill:#1087ff;}.cls-8{fill:#55535a;}</style></defs><g id="health"><g id="Group_360" data-name="Group 360"><path id="Rectangle_1374" data-name="Rectangle 1374" class="cls-1" d="M572.25,549.84H951.86V870.58a48.22,48.22,0,0,1-48.18,48.2H611.58a39.33,39.33,0,0,1-39.33-39.33Z" transform="translate(0 -105.22)"/><path id="Rectangle_1375" data-name="Rectangle 1375" class="cls-2" d="M572.25,450.42H938.48a47.71,47.71,0,0,1,47.72,47.72v51.7H572.25Z" transform="translate(0 -105.22)"/><path id="Path_1705" data-name="Path 1705" class="cls-3" d="M951.83,870.58V637.3H787.65a60.85,60.85,0,0,0-60.85,60.85h0V918.78H903.68a48.2,48.2,0,0,0,48.2-48.2Z" transform="translate(0 -105.22)"/><path id="Rectangle_1376" data-name="Rectangle 1376" class="cls-1" d="M51.72,266.75H572.24V879.07a39.69,39.69,0,0,1-39.68,39.68H93.06a41.36,41.36,0,0,1-41.34-41.31Z" transform="translate(0 -105.22)"/><path id="Path_1706" data-name="Path 1706" class="cls-4" d="M51.72,877.47a41.35,41.35,0,0,0,41.34,41.31h23.86V274.69H51.72Z" transform="translate(0 -105.22)"/><rect id="Rectangle_1377" data-name="Rectangle 1377" class="cls-3" x="51.72" y="267.26" width="520.51" height="440.58"/><rect id="Rectangle_1378" data-name="Rectangle 1378" class="cls-5" x="51.72" y="267.26" width="65.18" height="440.58"/><path id="Rectangle_1379" data-name="Rectangle 1379" class="cls-2" d="M50.16,142.9H573.8A50.18,50.18,0,0,1,624,193.05h0v73.7H0V193.05a50.16,50.16,0,0,1,50.16-50.16Z" transform="translate(0 -105.22)"/><circle id="Ellipse_66" data-name="Ellipse 66" class="cls-6" cx="297.93" cy="548.8" r="99.84"/><path id="Path_1707" data-name="Path 1707" class="cls-7" d="M488.72,647.23h-50.1V597.09H368.73v50.14H318.55v69.89h50.09v50.14h69.89V717.12h50.14Z" transform="translate(0 -105.22)"/><circle id="Ellipse_67" data-name="Ellipse 67" class="cls-6" cx="271.63" cy="359.21" r="40.38"/><circle id="Ellipse_68" data-name="Ellipse 68" class="cls-6" cx="146.89" cy="435.3" r="40.38"/><circle id="Ellipse_69" data-name="Ellipse 69" class="cls-6" cx="409.87" cy="401.7" r="40.38"/><rect id="Rectangle_1380" data-name="Rectangle 1380" class="cls-4" x="51.72" y="161.54" width="520.51" height="54.37"/><path id="Path_1708" data-name="Path 1708" class="cls-4" d="M951.83,549.84H572.25V879.46a39.34,39.34,0,0,0,39.33,39.32H624V657.34a64.6,64.6,0,0,1,64.6-64.6H951.83Z" transform="translate(0 -105.22)"/><rect id="Rectangle_1381" data-name="Rectangle 1381" class="cls-7" x="572.25" y="345.2" width="51.74" height="99.42"/><path id="Path_1709" data-name="Path 1709" class="cls-7" d="M316.31,215.8H105a53.17,53.17,0,0,1-53.18-53.16v0h0V143H50.2A50.17,50.17,0,0,0,0,193.11H0v73.68H369.41A53.09,53.09,0,0,0,316.31,215.8Z" transform="translate(0 -105.22)"/></g><g id="Group_361" data-name="Group 361"><path id="Path_1710" data-name="Path 1710" class="cls-8" d="M118.34,906H557.82A52.24,52.24,0,0,0,610,853.73V254h39.27a12.45,12.45,0,0,0,12.45-12.43v-73.7a62.71,62.71,0,0,0-62.62-62.63H75.44A62.72,62.72,0,0,0,12.8,167.85v73.62A12.45,12.45,0,0,0,25.2,254H64.51V852.19A53.85,53.85,0,0,0,118.34,906ZM197,254a12.51,12.51,0,0,0,.8-25H167.68v-57.6a12.47,12.47,0,1,0-24.93,0V229h-105V167.8a37.76,37.76,0,0,1,37.69-37.73H599.13a37.78,37.78,0,0,1,37.72,37.73V229H544.93v-57.6a12.47,12.47,0,0,0-24.92-.81h0V229H356.31v-57.6a12.47,12.47,0,1,0-24.93,0V229H306.53a12.46,12.46,0,0,0,0,24.91H585.11v80.79H131.84a12.47,12.47,0,0,0-.22,24.94H585.13V853.85a27.3,27.3,0,0,1-27.25,27.26H118.37a28.9,28.9,0,0,1-28.86-28.86v-52H543.83a12.47,12.47,0,0,0,0-24.93H89.51V254Z" transform="translate(0 -105.22)"/><path id="Path_1711" data-name="Path 1711" class="cls-8" d="M253.44,254a12.38,12.38,0,0,0,2.43-.26,13.11,13.11,0,0,0,4.46-1.83,13.39,13.39,0,0,0,1.89-1.56,12.48,12.48,0,0,0,0-17.66h0a12.12,12.12,0,0,0-1.89-1.54,10.34,10.34,0,0,0-2.15-1.15,12.46,12.46,0,1,0-4.74,24Z" transform="translate(0 -105.22)"/><path id="Path_1712" data-name="Path 1712" class="cls-8" d="M963.76,412.68H649.25a12.46,12.46,0,0,0,0,24.91H963.75A35.31,35.31,0,0,1,999,472.86v39.19h-70.4v-37.2a12.47,12.47,0,1,0-24.88-1.59q0,.39,0,.78V512.1H817V474.85a12.51,12.51,0,0,0-25-.81V512.1H700.16V474.85a12.46,12.46,0,1,0-24.92,0V512.1h-26a12.46,12.46,0,1,0,0,24.92H964.74v62.52H813a73.41,73.41,0,0,0-73.3,73.3V833.16a12.46,12.46,0,0,0,24.91,0V672.79A48.45,48.45,0,0,1,813,624.4H964.75V845.22A35.84,35.84,0,0,1,929,881H649.33a12.46,12.46,0,0,0,0,24.91H929a60.67,60.67,0,0,0,60.67-60.67h0V612h0V537h21.89A12.44,12.44,0,0,0,1024,524.51V472.82a60.24,60.24,0,0,0-60.24-60.16Z" transform="translate(0 -105.22)"/><path id="Path_1713" data-name="Path 1713" class="cls-8" d="M293.61,737.11a12.47,12.47,0,0,0,6.55-24,87.41,87.41,0,1,1,57.08-164.82,12.46,12.46,0,0,0,10.15-22.76l-.45-.19a112.33,112.33,0,1,0-87.32,207h0a109.78,109.78,0,0,0,14,4.85Z" transform="translate(0 -105.22)"/><path id="Path_1714" data-name="Path 1714" class="cls-8" d="M331.35,622v69.9a12.45,12.45,0,0,0,12.46,12.45h37.63V742a12.46,12.46,0,0,0,12.43,12.48h70A12.45,12.45,0,0,0,476.26,742h0V704.32H514a12.45,12.45,0,0,0,12.45-12.45h0V622A12.46,12.46,0,0,0,514,609.5H476.31V571.81a12.45,12.45,0,0,0-12.44-12.45H394a12.45,12.45,0,0,0-12.47,12.44h0v37.7h-37.7A12.48,12.48,0,0,0,331.35,622Zm24.94,12.46H394A12.47,12.47,0,0,0,406.43,622V584.27h45V622a12.45,12.45,0,0,0,12.45,12.46h37.68v45H463.9a12.45,12.45,0,0,0-12.47,12.44h0v37.68h-45V691.85A12.45,12.45,0,0,0,394,679.4H356.3Z" transform="translate(0 -105.22)"/><path id="Path_1715" data-name="Path 1715" class="cls-8" d="M297,492a52.83,52.83,0,1,0-52.84-52.84A52.83,52.83,0,0,0,297,492Zm0-80.76a27.92,27.92,0,1,1-27.9,27.93v0h0A28,28,0,0,1,297,411.21Z" transform="translate(0 -105.22)"/><path id="Path_1716" data-name="Path 1716" class="cls-8" d="M172.17,568.06a52.84,52.84,0,1,0-12.3-104.23,12.45,12.45,0,1,0,4.55,24.49,7.25,7.25,0,0,0,.78-.17l.43-.1A27.93,27.93,0,1,1,145,521.74a27.58,27.58,0,0,1-.78-6.53,12.47,12.47,0,0,0-24.93,0A52.9,52.9,0,0,0,172.17,568.06Z" transform="translate(0 -105.22)"/><path id="Path_1717" data-name="Path 1717" class="cls-8" d="M435.14,521.83A52.84,52.84,0,1,0,382.31,469h0a52.9,52.9,0,0,0,52.83,52.85Zm0-80.75A27.92,27.92,0,1,1,407.23,469v0h0a28,28,0,0,1,27.91-27.92Z" transform="translate(0 -105.22)"/></g></g></svg>