
<!-- Generator: Adobe Illustrator 21.1.0, SVG Export Plug-In . SVG Version: 6.00 Build 0)  -->
<svg version="1.1" id="图层_1" xmlns="http://www.w3.org/2000/svg" xmlns:xlink="http://www.w3.org/1999/xlink" x="0px" y="0px"
	 viewBox="0 0 503 187" style="enable-background:new 0 0 503 187;" xml:space="preserve">
<style type="text/css">
	.st0{fill:#F28C00;}
	.st1{enable-background:new    ;}
</style>
<title>Group</title>
<desc>Created with Sketch.</desc>
<g id="Page-1">
	<g id="卖家精灵_logo_白底" transform="translate(-24.000000, -66.000000)">
		<g id="Group" transform="translate(24.000000, 66.000000)">
			<path id="Combined-Shape" class="st0" d="M0,128.2V55.9c0-6.4,3.4-12.4,9-15.6L73.6,2.8c5.6-3.3,12.5-3.3,18.1,0l64.6,37.5
				c1.2,0.7,2.4,1.6,3.4,2.6H68.9c-17.6,0-31.8,14.3-31.8,32s14.2,32,31.8,32h31.8c5.9,0,10.6,4.8,10.6,10.7s-4.7,10.7-10.6,10.7H0z
				 M13.8,149.5h87c17.6,0,31.8-14.3,31.8-32s-14.2-32-31.8-32H68.9c-5.9,0-10.6-4.8-10.6-10.7s4.7-10.7,10.6-10.7h96.4v66.9
				c0,6.4-3.4,12.4-9,15.6l-64.6,37.5c-5.6,3.3-12.5,3.3-18.1,0L13.8,149.5z"/>
			<g id="Group-2" transform="translate(198.097251, 32.645192)">
				<g id="分组">
					<g class="st1">
						<path class="st0" d="M31.6,16.9v-3.9H3.7v-7h27.9V3.1h10.2v2.8h28.7v7H41.8v3.9h28.7v21.2H60.4V23.9H3.5v-7.1H31.6z
							 M38.8,55.2H3.7v-7.1h40.5V28.6h10v19.5h16.4v7.1H56.4l4.6,6.8c0.8,1.3,1.9,1.9,3.1,1.9h6.4v7.1h-9.9c-1.8,0-3.1-0.1-3.9-0.3
							c-0.8-0.2-1.4-0.6-2-1.1s-1.1-1.2-1.7-2l-5.2-7.6l-17.8,8.9c-1.9,1-3.6,1.7-5,2.1c-1.4,0.4-3.2,0.6-5.3,0.6H3.5v-7.1h12.6
							c1.5,0,2.8-0.1,4-0.4c1.1-0.3,2.6-0.9,4.4-1.7L38.8,55.2z M3.5,35h9.6l1.3,1.6c0.5,0.6,0.9,1,1.3,1.1c0.4,0.2,1.1,0.3,2.1,0.3
							h18.5v5.7H14.9c-1.6,0-3-0.2-4.1-0.5c-1.1-0.4-2.1-1.1-3-2.4L3.5,35z M4.3,26.7h9.8l0.9,0.9c0.5,0.6,1,0.9,1.4,1.1
							c0.4,0.2,1.1,0.3,2,0.3H36v5.8H15.4c-2.8,0-4.6-0.3-5.3-1c-0.7-0.6-1.3-1.3-1.8-1.9L4.3,26.7z"/>
						<path class="st0" d="M82.2,18V6.2h27.1l1.7-3.1h8.3l1.3,3.1h27.4v11.3h-9.4v-3.7H91.4V18H82.2z M116.8,37.9h-16.6
							c-1.1,0.8-2.1,1.4-2.9,1.8c-0.8,0.4-2.1,0.5-3.9,0.5H83v-7.5h5.4c1.9,0,3.3-0.3,4.1-0.8s1.6-1.5,2.3-2.8l1.1-2.1H83v-7.6h65.4
							v7.6h-42.1l-1.9,3.5h22v30.4c0,1.8-0.1,3.3-0.4,4.5c-0.2,1.2-0.7,2.3-1.3,3.1c-0.6,0.8-1.7,1.5-3.1,1.9
							c-1.5,0.4-2.8,0.7-4,0.7h-8.8v-7.5h4.6c1.3,0,2.2-0.2,2.7-0.7c0.5-0.4,0.7-1.3,0.7-2.6V37.9z M83,55.5V48h7
							c3.5,0,6-1.1,7.6-3.3l2.3-3.2H111l-7.4,9.7c-2.3,3-5.5,4.4-9.6,4.4H83z M83,71v-7.5h8.2c1.4,0,2.6-0.2,3.6-0.5s2-1.1,2.9-2.4
							l3.6-5.1h10.9l-6.5,9c-2,2.8-3.8,4.5-5.3,5.3c-1.6,0.8-3.8,1.2-6.8,1.2H83z M128.9,42.1v-7.6h3.1c1.3,0,2.1-0.2,2.6-0.6
							c0.5-0.4,1-1.1,1.5-2.1l1.5-2.5h10.2l-5.1,8c-1.1,1.8-2.3,3-3.5,3.7c-1.2,0.7-2.9,1.1-5.1,1.1H128.9z M129.9,45.2h9.5
							l2.3,14.1c0.3,1.9,0.6,3.2,1.1,3.7c0.4,0.5,1,0.8,1.7,0.8h4.8v7h-8.6c-1.9,0-3.4-0.4-4.3-1.2c-1-0.8-1.7-1.7-2.1-2.7
							c-0.4-1-0.7-2-0.9-2.9L129.9,45.2z"/>
						<path class="st0" d="M181.3,31.8v39.6h-9V31.8h-12v-8.1h12V3.9h9v19.9h9.9v8.1H181.3z M160.5,71.6v-7.1h0.9
							c0.4,0,0.7-0.3,0.8-1c0.1-0.7,0.1-1.5,0.2-2.7l1.1-26.6h7.9l-1.6,30.3c-0.1,2-0.4,3.6-0.9,5c-0.5,1.4-2.3,2-5.6,2H160.5z
							 M160.8,4.5h7l0.7,7.4c0.1,0.9,0.2,1.5,0.3,1.7s0.3,0.3,0.6,0.3h1.6v6.7h-3.9c-1.8,0-3.2-0.5-4-1.4s-1.3-2.4-1.5-4.5
							L160.8,4.5z M192.8,71.3h-2.9c-2.9,0-4.7-0.8-5.3-2.5c-0.6-1.7-1-3.2-1-4.4l-1.2-30.1h7.7l1.2,27.1c0,0.4,0.1,0.8,0.4,1.3
							c0.2,0.5,0.6,0.8,1,0.8h0.3V71.3z M192.4,4.2l-0.8,10.3c-0.1,1.1-0.4,2.3-0.9,3.7c-0.5,1.4-2,2.1-4.6,2.1h-3.4v-6.7h1.1
							c0.3,0,0.5-0.2,0.7-0.6l0.2-0.9c0-0.1,0-0.2,0.1-0.3l0.7-7.8H192.4z M204.2,23.6h-11v-7h11v-3.4h-10.6v-7h10.6V3.7h9.3v2.6h12
							v7h-12v3.4H226v7h-12.5v2.7h12.8v7h-34.1v-7h12.1V23.6z M208.9,64.6h5.1c1.9,0,2.8-0.5,2.8-1.5v-0.8h-14.4v8.9h-8.9V35.6h32.2
							v26.2c0,1.4-0.2,2.9-0.6,4.3c-0.4,1.4-1,2.5-1.8,3.2s-1.9,1.2-3.4,1.6c-1.5,0.3-3,0.5-4.5,0.5h-6.7V64.6z M202.5,42.5v3.1
							h14.4v-3.1H202.5z M216.8,55.5v-2.9h-14.4v2.9H216.8z"/>
					</g>
					<g class="st1">
						<path class="st0" d="M238.8,62.8h7.7c2,0,3.3-0.1,4-0.2s1.5-0.6,2.5-1.5l12.7-11.4V36.8h-26.5v-7.5h51.2
							c2.1,0,3.1-0.8,3.1-2.5v-2.4h-54.1v-7.5h54.1v-4.8h-54.7V4.4h64.9V30c0,1.9-0.5,3.5-1.6,4.8c-1.1,1.3-4.4,2-9.9,2h-16.6v13
							l11.8,11.3c1,0.9,2.1,1.5,3.3,1.6c1.3,0.1,2.6,0.1,4.1,0.1h8.7v8.1h-11.8c-3.3,0-5.3-0.1-6.2-0.2c-0.8-0.1-1.7-0.6-2.6-1.3
							l-12.8-10.9l-11,9.8c-1.4,1.3-2.8,2-4.1,2.3c-1.3,0.3-3.3,0.5-5.9,0.5h-10.4V62.8z M258.4,46.2v6.9h-8.8c-2,0-3.4-0.3-4.2-0.9
							c-0.8-0.6-1.5-1.7-2.1-3.4l-3.4-8.4h8.9l1.8,4.6c0.2,0.5,0.4,0.9,0.6,1.1c0.2,0.2,0.9,0.3,2,0.3H258.4z M282.9,52.7v-6.6h4.9
							c2.2,0,3.5-0.1,4-0.3c0.5-0.2,0.9-0.8,1.2-1.7l1.4-3.9h9.5l-3.1,7.7c-0.7,1.8-1.6,3-2.5,3.7c-1,0.7-2.1,1.1-3.5,1.1H282.9z"/>
					</g>
					<g class="st1">
						<path class="st0" d="M10.8,103.4c-0.9,0-1.8-0.1-2.7-0.3c-1-0.2-1.9-0.6-2.7-1.3c-0.5-0.4-0.9-0.8-1.2-1.4
							c-0.3-0.5-0.6-1.1-0.8-1.7c-0.2-0.6-0.4-1.2-0.5-1.9c-0.1-0.6-0.1-1.3-0.1-1.9c0-0.3,0-0.5,0-0.8s0-0.5,0.1-0.7
							C3.1,91,4,89.1,5.6,87.8c0.5-0.4,1-0.8,1.7-1.1c0.7-0.4,1.4-0.5,2-0.5H23c0.3,0,0.4,0.1,0.4,0.4v4.5c0,0.3-0.1,0.4-0.4,0.4
							H11.1c-0.4,0-0.7,0.2-1.1,0.5c-0.3,0.3-0.5,0.7-0.7,1c-0.1,0.3-0.2,0.5-0.2,0.8c0,0.3,0,0.5,0,0.8c0,0.4,0,0.9,0.1,1.4
							c0.1,0.5,0.2,0.9,0.6,1.2c0.3,0.3,0.7,0.5,1.3,0.5s1.1,0.1,1.8,0.1h4.6c0.9,0,1.7,0.1,2.7,0.4c0.9,0.2,1.8,0.7,2.6,1.3
							c0.5,0.4,0.9,0.9,1.2,1.4c0.3,0.5,0.6,1.1,0.8,1.8c0.2,0.6,0.4,1.3,0.4,2c0.1,0.7,0.1,1.3,0.1,2c0,0.3,0,0.6,0,0.9
							c0,0.2,0,0.5-0.1,0.7c-0.2,2.5-1.1,4.4-2.6,5.8c-0.5,0.4-1,0.8-1.7,1.1c-0.7,0.4-1.3,0.6-1.9,0.6h-15c-0.3,0-0.4-0.1-0.4-0.4
							v-4.5c0-0.3,0.1-0.4,0.4-0.4H17c0.4,0,0.8-0.2,1.1-0.6c0.3-0.4,0.5-0.8,0.7-1.1c0.1-0.3,0.2-0.6,0.2-0.9c0-0.3,0-0.6,0-0.9
							c0-0.4,0-0.9-0.1-1.4c-0.1-0.5-0.2-0.9-0.6-1.3c-0.3-0.3-0.7-0.5-1.2-0.6c-0.5-0.1-1.1-0.2-1.8-0.2H10.8z"/>
						<path class="st0" d="M32.9,107.8c0,0.4,0.1,0.8,0.3,1.1c0.2,0.3,0.5,0.6,0.9,0.9c0.4,0.3,0.8,0.5,1.3,0.6
							c0.5,0.2,1.1,0.2,1.6,0.2h9.8c0.3,0,0.4,0.1,0.4,0.4v4.2c0,0.3-0.1,0.4-0.4,0.4h-7c-2.3,0-4.2-0.2-5.8-0.6
							c-1.6-0.4-2.8-1-3.7-1.8c-0.9-0.8-1.6-1.9-2-3.2c-0.4-1.3-0.6-2.8-0.6-4.7c0-2.2,0.3-4,1-5.5c0.7-1.4,1.6-2.6,2.6-3.4
							c1.1-0.9,2.3-1.4,3.7-1.8s2.7-0.5,4.1-0.5c1.7,0,3.2,0.2,4.4,0.6c1.2,0.4,2.3,1,3,1.7c0.8,0.7,1.4,1.6,1.8,2.7
							s0.6,2.2,0.6,3.5v4.3c0,0.3-0.1,0.4-0.4,0.4H33.3C33,107.4,32.9,107.5,32.9,107.8z M43.9,102.6c0.3,0,0.4-0.1,0.4-0.4
							c0-1-0.5-1.9-1.4-2.5c-1-0.6-2.3-0.9-4-0.9c-0.5,0-1.2,0.1-1.8,0.2c-0.7,0.2-1.3,0.4-1.9,0.7c-0.6,0.3-1.1,0.6-1.5,1.1
							c-0.4,0.4-0.6,0.9-0.6,1.4c0,0.3,0.1,0.4,0.4,0.4H43.9z"/>
						<path class="st0" d="M53,86.2h4.2c0.3,0,0.4,0.1,0.4,0.4V111v0.1v4.2c0,0.3-0.1,0.4-0.4,0.4H53c-0.3,0-0.4-0.1-0.4-0.4v-4.2
							V111V86.6C52.6,86.3,52.8,86.2,53,86.2z"/>
						<path class="st0" d="M62.2,86.2h4.2c0.3,0,0.4,0.1,0.4,0.4V111v0.1v4.2c0,0.3-0.1,0.4-0.4,0.4h-4.2c-0.3,0-0.4-0.1-0.4-0.4
							v-4.2V111V86.6C61.8,86.3,61.9,86.2,62.2,86.2z"/>
						<path class="st0" d="M75,107.8c0,0.4,0.1,0.8,0.3,1.1c0.2,0.3,0.5,0.6,0.9,0.9c0.4,0.3,0.8,0.5,1.3,0.6
							c0.5,0.2,1.1,0.2,1.6,0.2H89c0.3,0,0.4,0.1,0.4,0.4v4.2c0,0.3-0.1,0.4-0.4,0.4h-7c-2.3,0-4.2-0.2-5.8-0.6
							c-1.6-0.4-2.8-1-3.7-1.8s-1.6-1.9-2-3.2c-0.4-1.3-0.6-2.8-0.6-4.7c0-2.2,0.3-4,1-5.5c0.7-1.4,1.6-2.6,2.6-3.4
							c1.1-0.9,2.3-1.4,3.7-1.8s2.7-0.5,4.1-0.5c1.7,0,3.2,0.2,4.4,0.6c1.2,0.4,2.3,1,3,1.7c0.8,0.7,1.4,1.6,1.8,2.7
							c0.4,1,0.6,2.2,0.6,3.5v4.3c0,0.3-0.1,0.4-0.4,0.4H75.4C75.1,107.4,75,107.5,75,107.8z M86,102.6c0.3,0,0.4-0.1,0.4-0.4
							c0-1-0.5-1.9-1.4-2.5c-1-0.6-2.3-0.9-4-0.9c-0.5,0-1.2,0.1-1.8,0.2c-0.7,0.2-1.3,0.4-1.9,0.7s-1.1,0.6-1.5,1.1
							s-0.6,0.9-0.6,1.4c0,0.3,0.1,0.4,0.4,0.4H86z"/>
						<path class="st0" d="M105.7,94.2c0.3,0,0.4,0.1,0.4,0.4v4.2c0,0.3-0.1,0.4-0.4,0.4h-4c-0.2,0-0.5,0.1-0.7,0.2
							c-0.2,0.1-0.4,0.3-0.5,0.5c-0.2,0.2-0.3,0.4-0.3,0.6c-0.1,0.2-0.1,0.4-0.1,0.6v14.2c0,0.3-0.1,0.4-0.4,0.4H95
							c-0.3,0-0.4-0.1-0.4-0.4V99.6c0-0.7,0.1-1.4,0.4-2.1c0.3-0.7,0.7-1.2,1.2-1.7c0.5-0.5,1.1-0.9,1.7-1.2
							c0.7-0.3,1.4-0.4,2.1-0.4H105.7z"/>
						<path class="st0" d="M116.6,103.4c-0.9,0-1.8-0.1-2.7-0.3s-1.9-0.6-2.7-1.3c-0.5-0.4-0.9-0.8-1.2-1.4
							c-0.3-0.5-0.6-1.1-0.8-1.7c-0.2-0.6-0.4-1.2-0.5-1.9c-0.1-0.6-0.1-1.3-0.1-1.9c0-0.3,0-0.5,0-0.8s0-0.5,0.1-0.7
							c0.2-2.4,1.1-4.2,2.7-5.6c0.5-0.4,1-0.8,1.7-1.1c0.7-0.4,1.4-0.5,2-0.5h13.6c0.3,0,0.4,0.1,0.4,0.4v4.5c0,0.3-0.1,0.4-0.4,0.4
							h-11.9c-0.4,0-0.7,0.2-1.1,0.5c-0.3,0.3-0.5,0.7-0.7,1c-0.1,0.3-0.2,0.5-0.2,0.8s0,0.5,0,0.8c0,0.4,0,0.9,0.1,1.4
							s0.2,0.9,0.6,1.2c0.3,0.3,0.7,0.5,1.3,0.5c0.5,0.1,1.1,0.1,1.8,0.1h4.6c0.9,0,1.7,0.1,2.7,0.4c0.9,0.2,1.8,0.7,2.6,1.3
							c0.5,0.4,0.9,0.9,1.2,1.4c0.3,0.5,0.6,1.1,0.8,1.8c0.2,0.6,0.3,1.3,0.4,2c0.1,0.7,0.1,1.3,0.1,2c0,0.3,0,0.6,0,0.9
							c0,0.2,0,0.5-0.1,0.7c-0.2,2.5-1.1,4.4-2.6,5.8c-0.5,0.4-1,0.8-1.7,1.1c-0.7,0.4-1.3,0.6-1.9,0.6h-15c-0.3,0-0.4-0.1-0.4-0.4
							v-4.5c0-0.3,0.1-0.4,0.4-0.4h13.3c0.4,0,0.8-0.2,1.1-0.6c0.3-0.4,0.5-0.8,0.7-1.1c0.1-0.3,0.2-0.6,0.2-0.9c0-0.3,0-0.6,0-0.9
							c0-0.4,0-0.9-0.1-1.4c-0.1-0.5-0.2-0.9-0.6-1.3c-0.3-0.3-0.7-0.5-1.2-0.6c-0.5-0.1-1.1-0.2-1.8-0.2H116.6z"/>
						<path class="st0" d="M139.7,123c0,0.3-0.1,0.4-0.4,0.4h-4.2c-0.3,0-0.4-0.1-0.4-0.4V94.7c0-0.3,0.1-0.4,0.4-0.4h10.2
							c1.6,0,3,0.3,4.1,0.9c1.1,0.6,2,1.3,2.6,2.3c0.6,1,1.1,2.1,1.4,3.3c0.3,1.2,0.4,2.5,0.4,3.8c0,2-0.2,3.6-0.7,5
							s-1.1,2.6-1.9,3.5c-0.8,0.9-1.8,1.6-2.9,2s-2.4,0.7-3.8,0.7h-4.3c-0.3,0-0.4,0.1-0.4,0.4V123z M139.7,110.3
							c0,0.3,0.1,0.4,0.4,0.4h5.4c0.4,0,0.8-0.1,1.2-0.4c0.4-0.3,0.8-0.6,1.1-1c0.3-0.4,0.6-0.8,0.8-1.3s0.3-1,0.3-1.4v-3.2
							c0-0.4-0.1-0.9-0.3-1.4c-0.2-0.5-0.5-0.9-0.8-1.3c-0.3-0.4-0.7-0.7-1.1-1c-0.4-0.3-0.8-0.4-1.2-0.4h-5.4
							c-0.3,0-0.4,0.1-0.4,0.4V110.3z"/>
						<path class="st0" d="M167.6,94.2c0.3,0,0.4,0.1,0.4,0.4v4.2c0,0.3-0.1,0.4-0.4,0.4h-4c-0.2,0-0.5,0.1-0.7,0.2
							c-0.2,0.1-0.4,0.3-0.5,0.5c-0.2,0.2-0.3,0.4-0.4,0.6c-0.1,0.2-0.1,0.4-0.1,0.6v14.2c0,0.3-0.1,0.4-0.4,0.4h-4.6
							c-0.3,0-0.4-0.1-0.4-0.4V99.6c0-0.7,0.1-1.4,0.4-2.1s0.7-1.2,1.2-1.7s1.1-0.9,1.7-1.2c0.7-0.3,1.4-0.4,2.1-0.4H167.6z"/>
						<path class="st0" d="M171.3,86.2h4.2c0.3,0,0.4,0.1,0.4,0.4v4.2c0,0.3-0.1,0.4-0.4,0.4h-4.2c-0.3,0-0.4-0.1-0.4-0.4v-4.2
							C170.9,86.3,171,86.2,171.3,86.2z M170.9,94.7c0-0.3,0.1-0.4,0.4-0.4h4.2c0.3,0,0.4,0.1,0.4,0.4v20.6c0,0.3-0.1,0.4-0.4,0.4
							h-4.2c-0.3,0-0.4-0.1-0.4-0.4V94.7z"/>
						<path class="st0" d="M187,110.3c0,0.3,0.1,0.4,0.4,0.4h3.5c0.2,0,0.3,0.2,0.3,0.4v4.2c0,0.3-0.1,0.4-0.4,0.4h-5.2
							c-1,0-1.9-0.3-2.6-0.9c-0.7-0.6-1-1.4-1-2.2V99.7c0-0.3-0.1-0.4-0.4-0.4h-2.2c-0.3,0-0.4-0.1-0.4-0.4v-4.2
							c0-0.3,0.1-0.4,0.4-0.4h2.2c0.3,0,0.4-0.1,0.4-0.4v-5.2c0-0.3,0.1-0.4,0.4-0.4h4.2c0.3,0,0.4,0.1,0.4,0.4v5.2
							c0,0.3,0.1,0.4,0.4,0.4h3.4c0.3,0,0.4,0.1,0.4,0.4v4.2c0,0.3-0.1,0.4-0.4,0.4h-3.4c-0.3,0-0.4,0.1-0.4,0.4V110.3z"/>
						<path class="st0" d="M198.7,107.8c0,0.4,0.1,0.8,0.3,1.1c0.2,0.3,0.5,0.6,0.9,0.9c0.4,0.3,0.8,0.5,1.3,0.6
							c0.5,0.2,1.1,0.2,1.6,0.2h9.8c0.3,0,0.4,0.1,0.4,0.4v4.2c0,0.3-0.1,0.4-0.4,0.4h-7c-2.3,0-4.2-0.2-5.8-0.6
							c-1.6-0.4-2.8-1-3.7-1.8s-1.6-1.9-2-3.2c-0.4-1.3-0.6-2.8-0.6-4.7c0-2.2,0.3-4,1-5.5c0.7-1.4,1.6-2.6,2.6-3.4
							c1.1-0.9,2.3-1.4,3.7-1.8s2.7-0.5,4.1-0.5c1.7,0,3.2,0.2,4.4,0.6c1.2,0.4,2.3,1,3,1.7s1.4,1.6,1.8,2.7c0.4,1,0.6,2.2,0.6,3.5
							v4.3c0,0.3-0.1,0.4-0.4,0.4h-15.2C198.8,107.4,198.7,107.5,198.7,107.8z M209.7,102.6c0.3,0,0.4-0.1,0.4-0.4
							c0-1-0.5-1.9-1.4-2.5s-2.3-0.9-4-0.9c-0.5,0-1.2,0.1-1.8,0.2c-0.7,0.2-1.3,0.4-1.9,0.7s-1.1,0.6-1.5,1.1s-0.6,0.9-0.6,1.4
							c0,0.3,0.1,0.4,0.4,0.4H209.7z"/>
						<path class="st0" d="M216.6,110.6c0-0.3,0.1-0.4,0.4-0.4h4.7c0.3,0,0.4,0.1,0.4,0.4v4.7c0,0.3-0.1,0.4-0.4,0.4H217
							c-0.3,0-0.4-0.1-0.4-0.4V110.6z"/>
						<path class="st0" d="M242.9,110.7c0.3,0,0.4,0.1,0.4,0.4v4.2c0,0.3-0.1,0.4-0.4,0.4h-7.7c-1.5,0-2.9-0.3-4-0.8
							c-1.2-0.5-2.2-1.2-3-2.1s-1.5-1.8-1.9-2.9c-0.4-1.1-0.7-2.1-0.7-3.2v-3.5c0-1.4,0.2-2.7,0.6-3.8c0.4-1.1,1-2.1,1.9-2.8
							c0.8-0.8,1.9-1.4,3.2-1.8c1.3-0.4,2.9-0.6,4.7-0.6h7c0.3,0,0.4,0.1,0.4,0.4v4.2c0,0.3-0.1,0.4-0.4,0.4h-7.8
							c-1.6,0-2.8,0.5-3.6,1.4c-0.8,1-1.2,2.1-1.2,3.5v1.8c0,1.4,0.4,2.5,1.1,3.4c0.8,0.9,2,1.3,3.6,1.3H242.9z"/>
						<path class="st0" d="M267.8,107.4c0,1.6-0.1,3-0.4,4.1s-0.7,1.9-1.3,2.6c-0.6,0.6-1.3,1.1-2.2,1.3s-2,0.4-3.3,0.4h-7.3
							c-1.3,0-2.3-0.2-3.1-0.7c-0.8-0.5-1.5-1-2-1.8c-0.5-0.7-0.8-1.6-1-2.5c-0.2-0.9-0.3-1.9-0.3-2.8v-7.3c0-1,0.2-1.9,0.5-2.7
							c0.3-0.8,0.8-1.5,1.4-2c0.6-0.6,1.3-1,2-1.3c0.8-0.3,1.6-0.5,2.5-0.5h8.3c0.7,0,1.5,0.1,2.2,0.4c0.8,0.3,1.4,0.7,2,1.2
							c0.6,0.5,1.1,1.2,1.4,1.9c0.4,0.8,0.6,1.6,0.6,2.6V107.4z M262.8,101.3c0-0.3-0.1-0.6-0.3-0.9c-0.2-0.3-0.5-0.5-0.8-0.7
							c-0.3-0.2-0.7-0.3-1.1-0.4s-0.8-0.1-1.2-0.1h-4.5c-0.4,0-0.7,0-1.1,0.1c-0.4,0.1-0.7,0.2-1,0.3c-0.3,0.2-0.5,0.4-0.7,0.7
							c-0.2,0.3-0.3,0.6-0.3,1v6.6c0,0.5,0.1,1,0.3,1.4c0.2,0.4,0.5,0.6,0.9,0.8c0.4,0.2,0.7,0.3,1.2,0.4s0.8,0.1,1.2,0.1h3.8
							c1,0,1.8-0.2,2.6-0.7c0.7-0.5,1.1-1.1,1.1-1.8v-3.3V101.3z"/>
					</g>
					<g class="st1">
						<path class="st0" d="M271.9,96.7c0-0.7,0.3-1.3,0.8-1.8c0.5-0.5,1.1-0.7,1.7-0.7h8.5c0.7,0,1.4,0.2,2,0.5
							c0.6,0.3,1,0.6,1.3,0.9c0.1,0.1,0.3,0.3,0.5,0.5s0.3,0.3,0.4,0.3c0.1,0,0.1,0,0.2-0.1c0.1-0.1,0.2-0.2,0.3-0.4
							s0.3-0.3,0.5-0.5c0.2-0.2,0.5-0.4,0.8-0.5c0.5-0.3,1.1-0.5,1.7-0.5c0.6,0,0.9-0.1,1.1-0.1h2.9c1.1,0,2.2,0.2,3.1,0.6
							c0.9,0.4,1.7,1,2.4,1.6s1.2,1.4,1.6,2.2c0.4,0.8,0.6,1.6,0.6,2.4v14.2c0,0.3-0.1,0.4-0.4,0.4h-4.2c-0.3,0-0.5-0.1-0.5-0.4
							v-13.7c0-0.4-0.1-0.8-0.3-1.2c-0.2-0.3-0.4-0.6-0.7-0.9c-0.3-0.2-0.6-0.4-0.9-0.6c-0.3-0.1-0.7-0.2-1-0.2h-2.7
							c-0.5,0-1,0.2-1.5,0.6c-0.5,0.4-0.7,0.9-0.7,1.6v14.3c0,0.3-0.1,0.4-0.4,0.4h-4.2c-0.3,0-0.4-0.1-0.4-0.4V101
							c0-0.5-0.3-1.1-0.8-1.5c-0.5-0.5-1.1-0.7-1.8-0.7H278c-0.3,0-0.6,0.1-0.8,0.4s-0.3,0.5-0.3,0.9v15.2c0,0.3-0.1,0.4-0.4,0.4
							h-4.2c-0.3,0-0.4-0.1-0.4-0.4V96.7z"/>
					</g>
				</g>
			</g>
		</g>
	</g>
</g>
</svg>
