
<!-- Generator: Adobe Illustrator 21.1.0, SVG Export Plug-In . SVG Version: 6.00 Build 0)  -->
<svg version="1.1" id="图层_1" xmlns="http://www.w3.org/2000/svg" xmlns:xlink="http://www.w3.org/1999/xlink" x="0px" y="0px"
	 viewBox="0 0 129 40" style="enable-background:new 0 0 129 40;" xml:space="preserve">
<style type="text/css">
	.st0{fill:#F28C00;}
	.st1{enable-background:new    ;}
</style>
<title>Group</title>
<desc>Created with Sketch.</desc>
<g id="页面">
	<g id="首页" transform="translate(-179.000000, -16.000000)">
		<g id="顶部导航">
			<g id="Group" transform="translate(179.000000, 16.000000)">
				<path id="Combined-Shape" class="st0" d="M0,27.4V12c0-1.4,0.7-2.6,1.9-3.3l13.7-8c1.2-0.7,2.7-0.7,3.9,0l13.7,8
					C33.5,8.8,33.8,9,34,9.2H14.7c-3.7,0-6.8,3-6.8,6.8s3,6.8,6.8,6.8h6.8c1.2,0,2.3,1,2.3,2.3c0,1.3-1,2.3-2.3,2.3H0z M2.9,31.9
					h18.5c3.7,0,6.8-3,6.8-6.8s-3-6.8-6.8-6.8h-6.8c-1.2,0-2.3-1-2.3-2.3s1-2.3,2.3-2.3h20.5V28c0,1.4-0.7,2.6-1.9,3.3l-13.7,8
					c-1.2,0.7-2.7,0.7-3.9,0L2.9,31.9z"/>
				<g id="Group-2" transform="translate(41.510053, 2.690466)">
					<g class="st1">
						<path class="st0" d="M8.8,5V3.9H1v-2h7.8V1.1h2.9v0.8h8v2h-8V5h8v5.9h-2.8V6.9H1V5H8.8z M10.8,15.7H1v-2h11.3V8.2h2.8v5.5h4.6
							v2h-3.9l1.3,1.9c0.2,0.4,0.5,0.5,0.9,0.5h1.8v2h-2.8c-0.5,0-0.9,0-1.1-0.1c-0.2-0.1-0.4-0.2-0.6-0.3c-0.2-0.1-0.3-0.3-0.5-0.6
							L13.3,17l-5,2.5c-0.5,0.3-1,0.5-1.4,0.6s-0.9,0.2-1.5,0.2H1v-2h3.5c0.4,0,0.8,0,1.1-0.1c0.3-0.1,0.7-0.2,1.2-0.5L10.8,15.7z
							 M1,10h2.7l0.4,0.5c0.1,0.2,0.2,0.3,0.4,0.3c0.1,0,0.3,0.1,0.6,0.1h5.1v1.6h-6c-0.5,0-0.8,0-1.2-0.1c-0.3-0.1-0.6-0.3-0.8-0.7
							L1,10z M1.2,7.7h2.7L4.2,8c0.1,0.2,0.3,0.3,0.4,0.3c0.1,0.1,0.3,0.1,0.6,0.1H10V10H4.3C3.5,10,3,9.9,2.8,9.7
							C2.6,9.5,2.5,9.3,2.3,9.2L1.2,7.7z"/>
						<path class="st0" d="M23.2,5.3V2h7.6l0.5-0.9h2.3L34,2h7.7v3.1H39v-1H25.8v1.2H23.2z M32.9,10.8h-4.6
							c-0.3,0.2-0.6,0.4-0.8,0.5c-0.2,0.1-0.6,0.1-1.1,0.1h-2.9V9.4h1.5c0.5,0,0.9-0.1,1.1-0.2s0.4-0.4,0.6-0.8L27,7.8h-3.6V5.7
							h18.2v2.1H29.9l-0.5,1h6.1v8.5c0,0.5,0,0.9-0.1,1.3c-0.1,0.3-0.2,0.6-0.4,0.9c-0.2,0.2-0.5,0.4-0.9,0.5
							C33.8,20,33.4,20,33.1,20h-2.5v-2.1h1.3c0.4,0,0.6-0.1,0.7-0.2s0.2-0.4,0.2-0.7V10.8z M23.4,15.7v-2.1h1.9
							c1,0,1.7-0.3,2.1-0.9l0.6-0.9h3.1l-2.1,2.7c-0.6,0.8-1.5,1.2-2.7,1.2H23.4z M23.4,20.1V18h2.3c0.4,0,0.7,0,1-0.1
							s0.6-0.3,0.8-0.7l1-1.4h3l-1.8,2.5c-0.6,0.8-1.1,1.3-1.5,1.5c-0.4,0.2-1.1,0.3-1.9,0.3H23.4z M36.3,12V9.9h0.9
							c0.4,0,0.6-0.1,0.7-0.2s0.3-0.3,0.4-0.6l0.4-0.7h2.8l-1.4,2.2c-0.3,0.5-0.6,0.8-1,1c-0.3,0.2-0.8,0.3-1.4,0.3H36.3z
							 M36.5,12.9h2.7l0.6,3.9c0.1,0.5,0.2,0.9,0.3,1s0.3,0.2,0.5,0.2h1.3V20h-2.4c-0.5,0-0.9-0.1-1.2-0.3c-0.3-0.2-0.5-0.5-0.6-0.8
							c-0.1-0.3-0.2-0.6-0.2-0.8L36.5,12.9z"/>
						<path class="st0" d="M51.1,9.1v11.1h-2.5V9.1h-3.3V6.9h3.3V1.3h2.5v5.5h2.8v2.3H51.1z M45.4,20.2v-2h0.3
							c0.1,0,0.2-0.1,0.2-0.3s0-0.4,0.1-0.7l0.3-7.4h2.2l-0.5,8.5c0,0.5-0.1,1-0.2,1.4c-0.1,0.4-0.7,0.6-1.6,0.6H45.4z M45.4,1.5
							h1.9l0.2,2.1c0,0.2,0,0.4,0.1,0.5c0,0.1,0.1,0.1,0.2,0.1h0.5V6h-1.1c-0.5,0-0.9-0.1-1.1-0.4c-0.2-0.3-0.4-0.7-0.4-1.3
							L45.4,1.5z M54.3,20.2h-0.8c-0.8,0-1.3-0.2-1.5-0.7c-0.2-0.5-0.3-0.9-0.3-1.2l-0.3-8.4h2.1l0.3,7.6c0,0.1,0,0.2,0.1,0.4
							c0.1,0.1,0.2,0.2,0.3,0.2h0.1V20.2z M54.2,1.4L54,4.3c0,0.3-0.1,0.6-0.3,1C53.6,5.8,53.2,6,52.5,6h-0.9V4.1h0.3
							C51.9,4.1,52,4,52,3.9l0.1-0.3c0,0,0-0.1,0-0.1l0.2-2.2H54.2z M57.5,6.9h-3.1V4.9h3.1V4h-3V2h3V1.3h2.6V2h3.3V4h-3.3v0.9h3.5
							v1.9h-3.5v0.7h3.6v2h-9.5v-2h3.4V6.9z M58.8,18.3h1.4c0.5,0,0.8-0.1,0.8-0.4v-0.2h-4v2.5h-2.5v-9.9h9v7.3
							c0,0.4-0.1,0.8-0.2,1.2c-0.1,0.4-0.3,0.7-0.5,0.9c-0.2,0.2-0.5,0.3-1,0.4s-0.8,0.1-1.2,0.1h-1.9V18.3z M57,12.1V13h4v-0.9H57z
							 M61.1,15.7v-0.8h-4v0.8H61.1z"/>
					</g>
					<g class="st1">
						<path class="st0" d="M67.5,17.8h2.2c0.6,0,0.9,0,1.1,0c0.2,0,0.4-0.2,0.7-0.4l3.5-3.2v-3.6h-7.4V8.4h14.3
							c0.6,0,0.9-0.2,0.9-0.7V7H67.7V4.9h15.1V3.6H67.5V1.5h18.1v7.1c0,0.5-0.1,1-0.4,1.3c-0.3,0.4-1.2,0.5-2.8,0.5h-4.6v3.6
							l3.3,3.1c0.3,0.3,0.6,0.4,0.9,0.4s0.7,0,1.1,0h2.4V20h-3.3c-0.9,0-1.5,0-1.7-0.1c-0.2,0-0.5-0.2-0.7-0.4l-3.6-3l-3.1,2.7
							c-0.4,0.4-0.8,0.6-1.2,0.7s-0.9,0.1-1.6,0.1h-2.9V17.8z M73,13.2v1.9h-2.4c-0.6,0-0.9-0.1-1.2-0.3c-0.2-0.2-0.4-0.5-0.6-1
							l-0.9-2.4h2.5l0.5,1.3c0.1,0.1,0.1,0.2,0.2,0.3c0.1,0,0.2,0.1,0.6,0.1H73z M79.8,15v-1.8h1.4c0.6,0,1,0,1.1-0.1
							c0.1-0.1,0.2-0.2,0.3-0.5l0.4-1.1h2.7l-0.9,2.1c-0.2,0.5-0.4,0.8-0.7,1s-0.6,0.3-1,0.3H79.8z"/>
					</g>
					<g class="st1">
						<path class="st0" d="M3.2,29.1c-0.3,0-0.5,0-0.8-0.1c-0.3-0.1-0.6-0.2-0.8-0.4c-0.1-0.1-0.3-0.2-0.3-0.4
							c-0.1-0.2-0.2-0.3-0.2-0.5c-0.1-0.2-0.1-0.4-0.1-0.6c0-0.2,0-0.4,0-0.6c0-0.1,0-0.2,0-0.2s0-0.1,0-0.2
							c0.1-0.7,0.3-1.3,0.8-1.6c0.1-0.1,0.3-0.2,0.5-0.3C2.3,24,2.5,24,2.7,24h4c0.1,0,0.1,0,0.1,0.1v1.3c0,0.1,0,0.1-0.1,0.1H3.3
							c-0.1,0-0.2,0.1-0.3,0.2c-0.1,0.1-0.2,0.2-0.2,0.3c0,0.1-0.1,0.2-0.1,0.2c0,0.1,0,0.2,0,0.2c0,0.1,0,0.3,0,0.4
							c0,0.1,0.1,0.3,0.2,0.4c0.1,0.1,0.2,0.1,0.4,0.2c0.2,0,0.3,0,0.5,0h1.4c0.3,0,0.5,0,0.8,0.1s0.5,0.2,0.8,0.4
							c0.1,0.1,0.3,0.3,0.3,0.4c0.1,0.2,0.2,0.3,0.2,0.5s0.1,0.4,0.1,0.6c0,0.2,0,0.4,0,0.6c0,0.1,0,0.2,0,0.3c0,0.1,0,0.1,0,0.2
							c-0.1,0.7-0.3,1.3-0.8,1.7c-0.1,0.1-0.3,0.2-0.5,0.3s-0.4,0.2-0.6,0.2H1.1c-0.1,0-0.1,0-0.1-0.1v-1.3c0-0.1,0-0.1,0.1-0.1H5
							c0.1,0,0.2-0.1,0.3-0.2c0.1-0.1,0.2-0.2,0.2-0.3c0-0.1,0.1-0.2,0.1-0.3c0-0.1,0-0.2,0-0.3c0-0.1,0-0.3,0-0.4
							c0-0.1-0.1-0.3-0.2-0.4c-0.1-0.1-0.2-0.2-0.3-0.2c-0.2,0-0.3-0.1-0.5-0.1H3.2z"/>
						<path class="st0" d="M9.5,30.4c0,0.1,0,0.2,0.1,0.3c0.1,0.1,0.2,0.2,0.3,0.3c0.1,0.1,0.2,0.1,0.4,0.2s0.3,0.1,0.5,0.1h2.9
							c0.1,0,0.1,0,0.1,0.1v1.2c0,0.1,0,0.1-0.1,0.1h-2.1c-0.7,0-1.3-0.1-1.7-0.2c-0.5-0.1-0.8-0.3-1.1-0.5
							c-0.3-0.2-0.5-0.6-0.6-0.9S8,30.2,8,29.7c0-0.7,0.1-1.2,0.3-1.6c0.2-0.4,0.5-0.8,0.8-1c0.3-0.3,0.7-0.4,1.1-0.5
							s0.8-0.2,1.2-0.2c0.5,0,0.9,0.1,1.3,0.2s0.7,0.3,0.9,0.5s0.4,0.5,0.5,0.8c0.1,0.3,0.2,0.7,0.2,1v1.3c0,0.1,0,0.1-0.1,0.1H9.6
							C9.6,30.3,9.5,30.3,9.5,30.4z M12.8,28.9c0.1,0,0.1,0,0.1-0.1c0-0.3-0.1-0.6-0.4-0.7s-0.7-0.3-1.2-0.3c-0.2,0-0.3,0-0.5,0.1
							s-0.4,0.1-0.6,0.2c-0.2,0.1-0.3,0.2-0.5,0.3c-0.1,0.1-0.2,0.3-0.2,0.4c0,0.1,0,0.1,0.1,0.1H12.8z"/>
						<path class="st0" d="M15.3,24h1.2c0.1,0,0.1,0,0.1,0.1v7.2v0v1.2c0,0.1,0,0.1-0.1,0.1h-1.2c-0.1,0-0.1,0-0.1-0.1v-1.2v0v-7.2
							C15.2,24,15.2,24,15.3,24z"/>
						<path class="st0" d="M17.8,24h1.2c0.1,0,0.1,0,0.1,0.1v7.2v0v1.2c0,0.1,0,0.1-0.1,0.1h-1.2c-0.1,0-0.1,0-0.1-0.1v-1.2v0v-7.2
							C17.7,24,17.8,24,17.8,24z"/>
						<path class="st0" d="M21.4,30.4c0,0.1,0,0.2,0.1,0.3c0.1,0.1,0.2,0.2,0.3,0.3c0.1,0.1,0.2,0.1,0.4,0.2s0.3,0.1,0.5,0.1h2.9
							c0.1,0,0.1,0,0.1,0.1v1.2c0,0.1,0,0.1-0.1,0.1h-2.1c-0.7,0-1.3-0.1-1.7-0.2c-0.5-0.1-0.8-0.3-1.1-0.5
							c-0.3-0.2-0.5-0.6-0.6-0.9s-0.2-0.8-0.2-1.4c0-0.7,0.1-1.2,0.3-1.6c0.2-0.4,0.5-0.8,0.8-1c0.3-0.3,0.7-0.4,1.1-0.5
							s0.8-0.2,1.2-0.2c0.5,0,0.9,0.1,1.3,0.2c0.4,0.1,0.7,0.3,0.9,0.5s0.4,0.5,0.5,0.8c0.1,0.3,0.2,0.7,0.2,1v1.3
							c0,0.1,0,0.1-0.1,0.1h-4.5C21.5,30.3,21.4,30.3,21.4,30.4z M24.7,28.9c0.1,0,0.1,0,0.1-0.1c0-0.3-0.1-0.6-0.4-0.7
							s-0.7-0.3-1.2-0.3c-0.2,0-0.3,0-0.5,0.1s-0.4,0.1-0.6,0.2c-0.2,0.1-0.3,0.2-0.5,0.3c-0.1,0.1-0.2,0.3-0.2,0.4
							c0,0.1,0,0.1,0.1,0.1H24.7z"/>
						<path class="st0" d="M30.3,26.4c0.1,0,0.1,0,0.1,0.1v1.2c0,0.1,0,0.1-0.1,0.1h-1.2c-0.1,0-0.1,0-0.2,0.1
							c-0.1,0-0.1,0.1-0.2,0.1s-0.1,0.1-0.1,0.2s0,0.1,0,0.2v4.2c0,0.1,0,0.1-0.1,0.1h-1.4c-0.1,0-0.1,0-0.1-0.1V28
							c0-0.2,0-0.4,0.1-0.6c0.1-0.2,0.2-0.4,0.3-0.5c0.1-0.1,0.3-0.3,0.5-0.3c0.2-0.1,0.4-0.1,0.6-0.1H30.3z"/>
						<path class="st0" d="M33.4,29.1c-0.3,0-0.5,0-0.8-0.1c-0.3-0.1-0.6-0.2-0.8-0.4c-0.1-0.1-0.3-0.2-0.3-0.4
							c-0.1-0.2-0.2-0.3-0.2-0.5c-0.1-0.2-0.1-0.4-0.1-0.6s0-0.4,0-0.6c0-0.1,0-0.2,0-0.2s0-0.1,0-0.2c0.1-0.7,0.3-1.3,0.8-1.6
							c0.1-0.1,0.3-0.2,0.5-0.3C32.6,24,32.8,24,33,24h4c0.1,0,0.1,0,0.1,0.1v1.3c0,0.1,0,0.1-0.1,0.1h-3.5c-0.1,0-0.2,0.1-0.3,0.2
							C33.1,25.8,33,25.9,33,26c0,0.1-0.1,0.2-0.1,0.2c0,0.1,0,0.2,0,0.2c0,0.1,0,0.3,0,0.4c0,0.1,0.1,0.3,0.2,0.4
							c0.1,0.1,0.2,0.1,0.4,0.2c0.2,0,0.3,0,0.5,0h1.4c0.3,0,0.5,0,0.8,0.1c0.3,0.1,0.5,0.2,0.8,0.4c0.1,0.1,0.3,0.3,0.3,0.4
							c0.1,0.2,0.2,0.3,0.2,0.5c0.1,0.2,0.1,0.4,0.1,0.6c0,0.2,0,0.4,0,0.6c0,0.1,0,0.2,0,0.3c0,0.1,0,0.1,0,0.2
							c-0.1,0.7-0.3,1.3-0.8,1.7c-0.1,0.1-0.3,0.2-0.5,0.3c-0.2,0.1-0.4,0.2-0.6,0.2h-4.4c-0.1,0-0.1,0-0.1-0.1v-1.3
							c0-0.1,0-0.1,0.1-0.1h3.9c0.1,0,0.2-0.1,0.3-0.2c0.1-0.1,0.2-0.2,0.2-0.3c0-0.1,0.1-0.2,0.1-0.3s0-0.2,0-0.3
							c0-0.1,0-0.3,0-0.4c0-0.1-0.1-0.3-0.2-0.4c-0.1-0.1-0.2-0.2-0.3-0.2c-0.2,0-0.3-0.1-0.5-0.1H33.4z"/>
						<path class="st0" d="M40.1,34.9c0,0.1,0,0.1-0.1,0.1h-1.2c-0.1,0-0.1,0-0.1-0.1v-8.4c0-0.1,0-0.1,0.1-0.1h3
							c0.5,0,0.9,0.1,1.2,0.3c0.3,0.2,0.6,0.4,0.8,0.7s0.3,0.6,0.4,1c0.1,0.4,0.1,0.7,0.1,1.1c0,0.6-0.1,1.1-0.2,1.5
							c-0.1,0.4-0.3,0.8-0.6,1c-0.2,0.3-0.5,0.5-0.9,0.6c-0.3,0.1-0.7,0.2-1.1,0.2h-1.3c-0.1,0-0.1,0-0.1,0.1V34.9z M40.1,31.1
							c0,0.1,0,0.1,0.1,0.1h1.6c0.1,0,0.2,0,0.4-0.1c0.1-0.1,0.2-0.2,0.3-0.3s0.2-0.3,0.2-0.4s0.1-0.3,0.1-0.4v-0.9
							c0-0.1,0-0.3-0.1-0.4s-0.1-0.3-0.2-0.4s-0.2-0.2-0.3-0.3c-0.1-0.1-0.2-0.1-0.4-0.1h-1.6c-0.1,0-0.1,0-0.1,0.1V31.1z"/>
						<path class="st0" d="M48.1,26.4c0.1,0,0.1,0,0.1,0.1v1.2c0,0.1,0,0.1-0.1,0.1H47c-0.1,0-0.1,0-0.2,0.1c-0.1,0-0.1,0.1-0.2,0.1
							s-0.1,0.1-0.1,0.2s0,0.1,0,0.2v4.2c0,0.1,0,0.1-0.1,0.1H45c-0.1,0-0.1,0-0.1-0.1V28c0-0.2,0-0.4,0.1-0.6
							c0.1-0.2,0.2-0.4,0.3-0.5c0.1-0.1,0.3-0.3,0.5-0.3c0.2-0.1,0.4-0.1,0.6-0.1H48.1z"/>
						<path class="st0" d="M49,24h1.2c0.1,0,0.1,0,0.1,0.1v1.2c0,0.1,0,0.1-0.1,0.1H49c-0.1,0-0.1,0-0.1-0.1v-1.2
							C48.9,24,48.9,24,49,24z M48.9,26.5c0-0.1,0-0.1,0.1-0.1h1.2c0.1,0,0.1,0,0.1,0.1v6.1c0,0.1,0,0.1-0.1,0.1H49
							c-0.1,0-0.1,0-0.1-0.1V26.5z"/>
						<path class="st0" d="M53.5,31.1c0,0.1,0,0.1,0.1,0.1h1c0.1,0,0.1,0,0.1,0.1v1.2c0,0.1,0,0.1-0.1,0.1h-1.5
							c-0.3,0-0.6-0.1-0.8-0.3c-0.2-0.2-0.3-0.4-0.3-0.7V28c0-0.1,0-0.1-0.1-0.1h-0.6c-0.1,0-0.1,0-0.1-0.1v-1.2
							c0-0.1,0-0.1,0.1-0.1h0.6c0.1,0,0.1,0,0.1-0.1v-1.5c0-0.1,0-0.1,0.1-0.1h1.2c0.1,0,0.1,0,0.1,0.1v1.5c0,0.1,0,0.1,0.1,0.1h1
							c0.1,0,0.1,0,0.1,0.1v1.2c0,0.1,0,0.1-0.1,0.1h-1c-0.1,0-0.1,0-0.1,0.1V31.1z"/>
						<path class="st0" d="M56.8,30.4c0,0.1,0,0.2,0.1,0.3c0.1,0.1,0.2,0.2,0.3,0.3c0.1,0.1,0.2,0.1,0.4,0.2c0.2,0,0.3,0.1,0.5,0.1
							h2.9c0.1,0,0.1,0,0.1,0.1v1.2c0,0.1,0,0.1-0.1,0.1h-2.1c-0.7,0-1.3-0.1-1.7-0.2c-0.5-0.1-0.8-0.3-1.1-0.5
							c-0.3-0.2-0.5-0.6-0.6-0.9s-0.2-0.8-0.2-1.4c0-0.7,0.1-1.2,0.3-1.6c0.2-0.4,0.5-0.8,0.8-1c0.3-0.3,0.7-0.4,1.1-0.5
							s0.8-0.2,1.2-0.2c0.5,0,0.9,0.1,1.3,0.2c0.4,0.1,0.7,0.3,0.9,0.5s0.4,0.5,0.5,0.8s0.2,0.7,0.2,1v1.3c0,0.1,0,0.1-0.1,0.1h-4.5
							C56.8,30.3,56.8,30.3,56.8,30.4z M60,28.9c0.1,0,0.1,0,0.1-0.1c0-0.3-0.1-0.6-0.4-0.7s-0.7-0.3-1.2-0.3c-0.2,0-0.3,0-0.5,0.1
							c-0.2,0-0.4,0.1-0.6,0.2c-0.2,0.1-0.3,0.2-0.5,0.3c-0.1,0.1-0.2,0.3-0.2,0.4c0,0.1,0,0.1,0.1,0.1H60z"/>
						<path class="st0" d="M61.9,31.2c0-0.1,0-0.1,0.1-0.1h1.4c0.1,0,0.1,0,0.1,0.1v1.4c0,0.1,0,0.1-0.1,0.1H62
							c-0.1,0-0.1,0-0.1-0.1V31.2z"/>
						<path class="st0" d="M69.5,31.3c0.1,0,0.1,0,0.1,0.1v1.2c0,0.1,0,0.1-0.1,0.1h-2.3c-0.4,0-0.8-0.1-1.2-0.2s-0.6-0.4-0.9-0.6
							c-0.2-0.3-0.4-0.5-0.6-0.9c-0.1-0.3-0.2-0.6-0.2-0.9v-1c0-0.4,0.1-0.8,0.2-1.1c0.1-0.3,0.3-0.6,0.5-0.8c0.2-0.2,0.6-0.4,1-0.5
							c0.4-0.1,0.9-0.2,1.4-0.2h2.1c0.1,0,0.1,0,0.1,0.1v1.2c0,0.1,0,0.1-0.1,0.1h-2.3c-0.5,0-0.8,0.1-1.1,0.4s-0.3,0.6-0.3,1.1v0.5
							c0,0.4,0.1,0.7,0.3,1c0.2,0.3,0.6,0.4,1.1,0.4H69.5z"/>
						<path class="st0" d="M76.7,30.3c0,0.5,0,0.9-0.1,1.2c-0.1,0.3-0.2,0.6-0.4,0.8c-0.2,0.2-0.4,0.3-0.7,0.4
							c-0.3,0.1-0.6,0.1-1,0.1h-2.2c-0.4,0-0.7-0.1-0.9-0.2c-0.2-0.1-0.4-0.3-0.6-0.5c-0.1-0.2-0.2-0.5-0.3-0.7
							c-0.1-0.3-0.1-0.6-0.1-0.8v-2.2c0-0.3,0.1-0.6,0.2-0.8c0.1-0.2,0.2-0.4,0.4-0.6s0.4-0.3,0.6-0.4c0.2-0.1,0.5-0.1,0.7-0.1h2.5
							c0.2,0,0.4,0,0.7,0.1c0.2,0.1,0.4,0.2,0.6,0.4c0.2,0.2,0.3,0.4,0.4,0.6c0.1,0.2,0.2,0.5,0.2,0.8V30.3z M75.2,28.5
							c0-0.1,0-0.2-0.1-0.3S75,28.1,74.9,28c-0.1-0.1-0.2-0.1-0.3-0.1s-0.2,0-0.4,0h-1.3c-0.1,0-0.2,0-0.3,0c-0.1,0-0.2,0.1-0.3,0.1
							c-0.1,0-0.2,0.1-0.2,0.2c-0.1,0.1-0.1,0.2-0.1,0.3v2c0,0.2,0,0.3,0.1,0.4c0.1,0.1,0.2,0.2,0.3,0.3c0.1,0.1,0.2,0.1,0.3,0.1
							s0.2,0,0.3,0h1.1c0.3,0,0.5-0.1,0.8-0.2c0.2-0.1,0.3-0.3,0.3-0.5v-1V28.5z"/>
						<path class="st0" d="M77.6,27.1c0-0.2,0.1-0.4,0.2-0.5s0.3-0.2,0.5-0.2h2.5c0.2,0,0.4,0,0.6,0.1c0.2,0.1,0.3,0.2,0.4,0.3
							c0,0,0.1,0.1,0.1,0.1s0.1,0.1,0.1,0.1c0,0,0,0,0.1,0c0,0,0.1-0.1,0.1-0.1s0.1-0.1,0.2-0.2c0.1-0.1,0.1-0.1,0.2-0.1
							c0.2-0.1,0.3-0.1,0.5-0.2c0.2,0,0.3,0,0.3,0h0.9c0.3,0,0.6,0.1,0.9,0.2c0.3,0.1,0.5,0.3,0.7,0.5c0.2,0.2,0.4,0.4,0.5,0.7
							c0.1,0.2,0.2,0.5,0.2,0.7v4.2c0,0.1,0,0.1-0.1,0.1h-1.2c-0.1,0-0.1,0-0.1-0.1v-4.1c0-0.1,0-0.2-0.1-0.3
							C85,28.1,84.9,28,84.8,28s-0.2-0.1-0.3-0.2c-0.1,0-0.2-0.1-0.3-0.1h-0.8c-0.1,0-0.3,0.1-0.4,0.2c-0.1,0.1-0.2,0.3-0.2,0.5v4.2
							c0,0.1,0,0.1-0.1,0.1h-1.2c-0.1,0-0.1,0-0.1-0.1v-4.2c0-0.2-0.1-0.3-0.2-0.4c-0.2-0.1-0.3-0.2-0.5-0.2h-1.1
							c-0.1,0-0.2,0-0.2,0.1c-0.1,0.1-0.1,0.2-0.1,0.3v4.5c0,0.1,0,0.1-0.1,0.1h-1.2c-0.1,0-0.1,0-0.1-0.1V27.1z"/>
					</g>
				</g>
			</g>
		</g>
	</g>
</g>
</svg>
