
<svg width="888px" height="192px" viewBox="0 0 888 192" version="1.1" xmlns="http://www.w3.org/2000/svg" xmlns:xlink="http://www.w3.org/1999/xlink">
    <!-- Generator: Sketch 51.1 (57501) - http://www.bohemiancoding.com/sketch -->
    <title>SellerSprite_logo_w_EN</title>
    <desc>Created with Sketch.</desc>
    <defs></defs>
    <g id="Page-1" stroke="none" stroke-width="1" fill="none" fill-rule="evenodd">
        <g id="SellerSprite_logo_w_EN" fill="#FFFFFF" fill-rule="nonzero">
            <path d="M0,131.9 L0,59.2 C0,51.1 4.2,43.7 11.1,39.5 L71.2,3.5 C78.4,-0.8 87.5,-0.8 94.7,3.5 L154.8,39.5 C156.6,40.6 158.2,41.9 159.7,43.4 L75,43.4 C57.3,43.4 43,58.3 43,76.6 C43,92.9 54.3,106.4 69.2,109.2 L69.2,109.7 L101.1,109.7 C107,109.7 111.8,114.7 111.8,120.8 C111.8,126.9 107,131.9 101.1,131.9 L0,131.9 Z M13.8,154.1 L101.2,154.1 C118.9,154.1 133.2,139.2 133.2,120.9 C133.2,104.6 121.9,91.1 107,88.3 L107,87.8 L75,87.8 C69.1,87.8 64.3,82.8 64.3,76.7 C64.3,70.6 69.1,65.6 75,65.6 L166.1,65.6 L166.1,132.8 C166.1,140.9 161.9,148.3 155,152.5 L94.9,188.5 C87.7,192.8 78.6,192.8 71.4,188.5 L13.8,154.1 Z" id="Shape"></path>
            <path d="M222.2,105.3 C219.4,105.3 216.3,104.9 213.1,104.2 C209.9,103.5 206.9,102.1 204.3,100 C202.7,98.7 201.4,97.2 200.4,95.4 C199.3,93.6 198.5,91.7 197.8,89.6 C197.1,87.5 196.6,85.4 196.3,83.3 C196,81.2 195.8,79 195.8,76.9 L195.8,74.3 C195.8,73.5 195.9,72.7 196.1,71.8 C196.7,63.8 199.7,57.7 205,53.3 C206.6,52 208.5,50.8 210.8,49.6 C213.1,48.4 215.3,47.8 217.5,47.8 L262.9,47.8 C263.8,47.8 264.3,48.3 264.3,49.2 L264.3,64.3 C264.3,65.2 263.8,65.7 262.9,65.7 L223.3,65.7 C222,65.7 220.9,66.3 219.8,67.4 C218.7,68.5 218,69.6 217.5,70.6 C217,71.5 216.8,72.4 216.7,73.3 C216.6,74.2 216.6,75.1 216.6,76 C216.6,77.5 216.7,79 216.9,80.5 C217.1,82.1 217.7,83.4 218.8,84.6 C219.8,85.6 221.2,86.2 223,86.4 C224.8,86.6 226.7,86.7 228.8,86.7 L244,86.7 C246.8,86.7 249.8,87.1 252.9,87.9 C256,88.7 258.9,90.2 261.5,92.4 C263.1,93.7 264.4,95.2 265.4,97.1 C266.4,98.9 267.3,100.9 268,103 C268.7,105.1 269.2,107.3 269.4,109.6 C269.7,111.9 269.8,114.1 269.8,116.2 L269.8,119.1 C269.8,119.9 269.7,120.7 269.5,121.4 C268.8,129.7 265.8,136.1 260.7,140.6 C259.1,141.9 257.2,143.1 255,144.4 C252.8,145.6 250.6,146.3 248.6,146.3 L198.7,146.3 C197.8,146.3 197.3,145.8 197.3,144.9 L197.3,129.8 C197.3,128.9 197.8,128.4 198.7,128.4 L243,128.4 C244.4,128.4 245.6,127.7 246.6,126.4 C247.6,125.1 248.3,123.9 248.8,122.8 C249.3,121.8 249.5,120.8 249.6,119.9 C249.7,119 249.7,118 249.7,117 C249.7,115.5 249.6,114 249.4,112.4 C249.2,110.8 248.6,109.4 247.5,108.1 C246.6,107.1 245.3,106.4 243.6,106 C241.9,105.6 239.9,105.4 237.6,105.4 L222.2,105.4 L222.2,105.3 Z M294.4,119.8 C294.4,121.2 294.8,122.4 295.5,123.6 C296.2,124.7 297.2,125.7 298.4,126.6 C299.6,127.5 301.1,128.2 302.9,128.7 C304.6,129.2 306.5,129.5 308.4,129.5 L341,129.5 C341.9,129.5 342.4,130 342.4,130.9 L342.4,144.9 C342.4,145.8 341.9,146.3 341,146.3 L317.8,146.3 C310.1,146.3 303.7,145.7 298.5,144.4 C293.3,143.1 289.2,141.1 286,138.3 C282.8,135.5 280.6,132 279.3,127.7 C278,123.4 277.3,118.2 277.3,112.2 C277.3,104.9 278.4,98.8 280.7,94 C282.9,89.2 285.9,85.4 289.5,82.6 C293.1,79.8 297.2,77.8 301.7,76.6 C306.2,75.5 310.8,74.9 315.3,74.9 C321,74.9 325.9,75.6 330,76.9 C334.1,78.2 337.5,80.1 340.1,82.5 C342.7,84.9 344.7,87.9 345.9,91.3 C347.1,94.8 347.8,98.7 347.8,103 L347.8,117.3 C347.8,118.2 347.3,118.7 346.4,118.7 L295.7,118.7 C294.9,118.4 294.4,118.9 294.4,119.8 Z M331,102.4 C331.9,102.4 332.4,101.9 332.4,101 C332.4,97.5 330.8,94.8 327.6,92.7 C324.4,90.6 319.9,89.6 314.2,89.6 C312.4,89.6 310.3,89.9 308.1,90.4 C305.9,90.9 303.7,91.7 301.7,92.7 C299.6,93.7 297.9,94.8 296.6,96.3 C295.2,97.7 294.5,99.3 294.5,101 C294.5,101.9 295,102.4 295.9,102.4 L331,102.4 Z M360.3,47.9 L374.3,47.9 C375.2,47.9 375.7,48.4 375.7,49.3 L375.7,144.9 C375.7,145.8 375.2,146.3 374.3,146.3 L360.3,146.3 C359.4,146.3 358.9,145.8 358.9,144.9 L358.9,49.3 C359,48.3 359.4,47.9 360.3,47.9 Z M389.5,47.9 L403.5,47.9 C404.4,47.9 404.9,48.4 404.9,49.3 L404.9,144.9 C404.9,145.8 404.4,146.3 403.5,146.3 L389.5,146.3 C388.6,146.3 388.1,145.8 388.1,144.9 L388.1,49.3 C388.2,48.3 388.6,47.9 389.5,47.9 Z M430.8,119.8 C430.8,121.2 431.2,122.4 431.9,123.6 C432.6,124.7 433.6,125.7 434.8,126.6 C436,127.5 437.5,128.2 439.3,128.7 C441,129.2 442.9,129.5 444.8,129.5 L477.4,129.5 C478.3,129.5 478.8,130 478.8,130.9 L478.8,144.9 C478.8,145.8 478.3,146.3 477.4,146.3 L454.2,146.3 C446.5,146.3 440.1,145.7 434.9,144.4 C429.7,143.1 425.6,141.1 422.4,138.3 C419.2,135.5 417,132 415.7,127.7 C414.4,123.4 413.7,118.2 413.7,112.2 C413.7,104.9 414.8,98.8 417.1,94 C419.3,89.2 422.3,85.4 425.9,82.6 C429.5,79.8 433.6,77.8 438.1,76.6 C442.6,75.5 447.2,74.9 451.7,74.9 C457.4,74.9 462.3,75.6 466.4,76.9 C470.5,78.2 473.9,80.1 476.5,82.5 C479.1,84.9 481.1,87.9 482.3,91.3 C483.5,94.8 484.1,98.7 484.1,103 L484.1,117.3 C484.1,118.2 483.6,118.7 482.7,118.7 L432,118.7 C431.2,118.4 430.8,118.9 430.8,119.8 Z M467.4,102.4 C468.3,102.4 468.8,101.9 468.8,101 C468.8,97.5 467.2,94.8 464,92.7 C460.8,90.6 456.3,89.6 450.6,89.6 C448.8,89.6 446.7,89.9 444.5,90.4 C442.3,90.9 440.1,91.7 438.1,92.7 C436,93.7 434.3,94.8 433,96.3 C431.6,97.7 430.9,99.3 430.9,101 C430.9,101.9 431.4,102.4 432.3,102.4 L467.4,102.4 Z M531.7,74.7 C532.6,74.7 533.1,75.2 533.1,76.1 L533.1,90.1 C533.1,91 532.6,91.5 531.7,91.5 L518.5,91.5 C517.7,91.5 516.9,91.7 516.3,92.2 C515.7,92.7 515.1,93.2 514.6,93.8 C514.1,94.4 513.7,95 513.4,95.7 C513.1,96.4 513,97 513,97.6 L513,144.9 C513,145.8 512.5,146.3 511.6,146.3 L496.2,146.3 C495.3,146.3 494.8,145.8 494.8,144.9 L494.8,92.8 C494.8,90.4 495.3,88.1 496.2,85.9 C497.2,83.7 498.5,81.8 500.1,80.1 C501.7,78.5 503.7,77.2 505.9,76.2 C508.1,75.2 510.4,74.8 512.9,74.8 L531.7,74.8 L531.7,74.7 Z M567,105.3 C564.2,105.3 561.1,104.9 557.9,104.2 C554.7,103.5 551.7,102.1 549.1,100 C547.5,98.7 546.2,97.2 545.2,95.4 C544.1,93.6 543.3,91.7 542.6,89.6 C541.9,87.5 541.4,85.4 541.1,83.3 C540.8,81.2 540.6,79 540.6,76.9 L540.6,74.3 C540.6,73.5 540.7,72.7 540.9,71.8 C541.5,63.8 544.5,57.7 549.8,53.3 C551.4,52 553.3,50.8 555.6,49.6 C557.9,48.4 560.1,47.8 562.3,47.8 L607.7,47.8 C608.6,47.8 609.1,48.3 609.1,49.2 L609.1,64.3 C609.1,65.2 608.6,65.7 607.7,65.7 L568,65.7 C566.7,65.7 565.6,66.3 564.5,67.4 C563.4,68.5 562.7,69.6 562.2,70.6 C561.7,71.5 561.5,72.4 561.4,73.3 C561.3,74.2 561.3,75.1 561.3,76 C561.3,77.5 561.4,79 561.6,80.5 C561.8,82.1 562.4,83.4 563.5,84.6 C564.5,85.6 565.9,86.2 567.7,86.4 C569.5,86.6 571.4,86.7 573.5,86.7 L588.9,86.7 C591.7,86.7 594.7,87.1 597.8,87.9 C600.9,88.7 603.8,90.2 606.4,92.4 C608,93.7 609.3,95.2 610.3,97.1 C611.3,98.9 612.2,100.9 612.9,103 C613.6,105.1 614.1,107.3 614.3,109.6 C614.6,111.9 614.7,114.1 614.7,116.2 L614.7,119.1 C614.7,119.9 614.6,120.7 614.4,121.4 C613.7,129.7 610.7,136.1 605.6,140.6 C604,141.9 602.1,143.1 599.9,144.4 C597.7,145.6 595.5,146.3 593.5,146.3 L543.6,146.3 C542.7,146.3 542.2,145.8 542.2,144.9 L542.2,129.8 C542.2,128.9 542.7,128.4 543.6,128.4 L587.7,128.4 C589.1,128.4 590.3,127.7 591.3,126.4 C592.3,125.1 593,123.9 593.5,122.8 C594,121.8 594.2,120.8 594.3,119.9 C594.4,119 594.4,118 594.4,117 C594.4,115.5 594.3,114 594.1,112.4 C593.9,110.8 593.3,109.4 592.2,108.1 C591.3,107.1 590,106.4 588.3,106 C586.6,105.6 584.6,105.4 582.3,105.4 L567,105.4 L567,105.3 Z M642.6,170.5 C642.6,171.4 642.1,171.9 641.2,171.9 L627.2,171.9 C626.3,171.9 625.8,171.4 625.8,170.5 L625.8,76.1 C625.8,75.2 626.3,74.7 627.2,74.7 L661.1,74.7 C666.5,74.7 671,75.7 674.6,77.6 C678.2,79.5 681.1,82.1 683.2,85.3 C685.3,88.5 686.9,92.2 687.8,96.3 C688.7,100.4 689.2,104.7 689.2,109 C689.2,115.5 688.4,121.1 686.9,125.7 C685.4,130.4 683.3,134.2 680.6,137.2 C677.9,140.2 674.7,142.5 670.9,143.9 C667.1,145.4 662.9,146.1 658.4,146.1 L644,146.1 C643.1,146.1 642.6,146.6 642.6,147.5 L642.6,170.5 Z M642.6,128 C642.6,128.9 643.1,129.4 644,129.4 L662,129.4 C663.4,129.4 664.7,129 666,128.1 C667.3,127.2 668.5,126.1 669.6,124.8 C670.6,123.5 671.5,122 672.2,120.3 C672.9,118.7 673.2,117.1 673.2,115.5 L673.2,105 C673.2,103.5 672.9,102 672.2,100.3 C671.5,98.7 670.6,97.2 669.6,95.9 C668.5,94.6 667.4,93.5 666,92.7 C664.7,91.8 663.3,91.4 662,91.4 L643.9,91.4 C643,91.4 642.5,91.9 642.5,92.8 L642.5,128 L642.6,128 Z M734,74.7 C734.9,74.7 735.4,75.2 735.4,76.1 L735.4,90.1 C735.4,91 734.9,91.5 734,91.5 L720.8,91.5 C720,91.5 719.2,91.7 718.6,92.2 C718,92.7 717.4,93.2 716.9,93.8 C716.4,94.4 716,95 715.7,95.7 C715.4,96.4 715.3,97 715.3,97.6 L715.3,144.9 C715.3,145.8 714.8,146.3 713.9,146.3 L698.5,146.3 C697.6,146.3 697.1,145.8 697.1,144.9 L697.1,92.8 C697.1,90.4 697.6,88.1 698.5,85.9 C699.5,83.7 700.8,81.8 702.4,80.1 C704,78.5 706,77.2 708.2,76.2 C710.4,75.2 712.7,74.8 715.2,74.8 L734,74.8 L734,74.7 Z M745.1,47.9 L759.1,47.9 C760,47.9 760.5,48.4 760.5,49.3 L760.5,63.3 C760.5,64.2 760,64.7 759.1,64.7 L745.1,64.7 C744.2,64.7 743.7,64.2 743.7,63.3 L743.7,49.3 C743.7,48.3 744.2,47.9 745.1,47.9 Z M743.7,76.1 C743.7,75.2 744.2,74.7 745.1,74.7 L759.1,74.7 C760,74.7 760.5,75.2 760.5,76.1 L760.5,144.8 C760.5,145.7 760,146.2 759.1,146.2 L745.1,146.2 C744.2,146.2 743.7,145.7 743.7,144.8 L743.7,76.1 Z M796.2,128 C796.2,128.9 796.7,129.4 797.6,129.4 L809.1,129.4 C809.8,129.5 810.2,129.9 810.2,130.8 L810.2,144.8 C810.2,145.7 809.7,146.2 808.8,146.2 L791.5,146.2 C788,146.2 785.1,145.2 782.9,143 C780.6,140.9 779.5,138.4 779.5,135.6 L779.5,92.8 C779.5,91.9 779,91.4 778.1,91.4 L770.8,91.4 C769.9,91.4 769.4,90.9 769.4,90 L769.4,76 C769.4,75.1 769.9,74.6 770.8,74.6 L778.1,74.6 C779,74.6 779.5,74.1 779.5,73.2 L779.5,56.1 C779.5,55.2 780,54.7 780.9,54.7 L794.9,54.7 C795.8,54.7 796.3,55.2 796.3,56.1 L796.3,73.2 C796.3,74.1 796.8,74.6 797.7,74.6 L808.9,74.6 C809.8,74.6 810.3,75.1 810.3,76 L810.3,90 C810.3,90.9 809.8,91.4 808.9,91.4 L797.7,91.4 C796.8,91.4 796.3,91.9 796.3,92.8 L796.3,128 L796.2,128 Z M833.8,119.8 C833.8,121.2 834.2,122.4 834.9,123.6 C835.6,124.7 836.6,125.7 837.8,126.6 C839,127.5 840.5,128.2 842.3,128.7 C844,129.2 845.9,129.5 847.8,129.5 L880.4,129.5 C881.3,129.5 881.8,130 881.8,130.9 L881.8,144.9 C881.8,145.8 881.3,146.3 880.4,146.3 L857.2,146.3 C849.5,146.3 843.1,145.7 837.9,144.4 C832.7,143.1 828.6,141.1 825.4,138.3 C822.2,135.5 820,132 818.7,127.7 C817.4,123.4 816.7,118.2 816.7,112.2 C816.7,104.9 817.8,98.8 820.1,94 C822.3,89.2 825.3,85.4 828.9,82.6 C832.5,79.8 836.6,77.8 841.1,76.6 C845.6,75.5 850.2,74.9 854.7,74.9 C860.4,74.9 865.3,75.6 869.4,76.9 C873.5,78.2 876.9,80.1 879.5,82.5 C882.1,84.9 884.1,87.9 885.3,91.3 C886.5,94.8 887.1,98.7 887.1,103 L887.1,117.3 C887.1,118.2 886.6,118.7 885.7,118.7 L835,118.7 C834.2,118.4 833.8,118.9 833.8,119.8 Z M870.4,102.4 C871.3,102.4 871.8,101.9 871.8,101 C871.8,97.5 870.2,94.8 867,92.7 C863.8,90.6 859.3,89.6 853.6,89.6 C851.8,89.6 849.7,89.9 847.5,90.4 C845.3,90.9 843.1,91.7 841.1,92.7 C839,93.7 837.3,94.8 836,96.3 C834.6,97.7 833.9,99.3 833.9,101 C833.9,101.9 834.4,102.4 835.3,102.4 L870.4,102.4 Z" id="Shape"></path>
        </g>
    </g>
</svg>