
<svg width="138px" height="36px" viewBox="0 0 138 36" version="1.1" xmlns="http://www.w3.org/2000/svg" xmlns:xlink="http://www.w3.org/1999/xlink">
    <!-- Generator: Sketch 52.5 (67469) - http://www.bohemiancoding.com/sketch -->
    <title>logo-chinese</title>
    <desc>Created with Sketch.</desc>
    <g id="Page-1" stroke="none" stroke-width="1" fill="none" fill-rule="evenodd">
        <g id="选产品-修改1.16" transform="translate(-30.000000, -15.000000)" fill="#FFFFFF">
            <g id="顶部">
                <g id="logo" transform="translate(30.000000, 15.000000)">
                    <path d="M8.07125503e-14,24.2044533 L7.10542736e-14,10.8362503 C6.97220059e-14,9.3558175 0.777233142,7.98408034 2.04717175,7.22320111 L13.1034549,0.5988682 C14.436169,-0.199622733 16.1002321,-0.199622733 17.4329462,0.5988682 L28.4892293,7.22320111 C28.8233782,7.42340526 29.1234156,7.66590109 29.3841581,7.9415408 L13.7859011,7.9415408 C10.540271,7.9415408 7.90916799,10.6719735 7.90916799,14.040133 C7.90916799,17.0352795 9.9897685,19.5261301 12.7329218,20.0411026 L12.7329218,20.1387252 L13.7859011,20.1387252 L18.6096549,20.1387252 C19.6915316,20.1387252 20.5685659,21.0488695 20.5685659,22.1715893 C20.5685659,23.2943091 19.6915316,24.2044533 18.6096549,24.2044533 L8.07132139e-14,24.2044533 Z M2.54470009,28.2701815 L18.6096549,28.2701815 C21.855285,28.2701815 24.486388,25.5397487 24.486388,22.1715893 C24.486388,19.1764428 22.4057875,16.6855922 19.6626342,16.1706197 L19.6626342,16.0729971 L13.7859011,16.0729971 C12.7040244,16.0729971 11.8269901,15.1628528 11.8269901,14.040133 C11.8269901,12.9174132 12.7040244,12.0072689 13.7859011,12.0072689 L30.5364011,12.0072689 L30.5364011,24.35904 C30.5364011,25.8394728 29.7591679,27.2112099 28.4892293,27.9720891 L17.4329462,34.5964221 C16.1002321,35.394913 14.436169,35.394913 13.1034549,34.5964221 L2.54470009,28.2701815 Z M47.6392299,11.0081613 L47.6392299,9.71993583 L38.4904436,9.71993583 L38.4904436,7.41782924 L47.6392299,7.41782924 L47.6392299,6.4874442 L50.9910017,6.4874442 L50.9910017,7.41782924 L60.4022042,7.41782924 L60.4022042,9.71993583 L50.9910017,9.71993583 L50.9910017,11.0081613 L60.4022042,11.0081613 L60.4022042,17.9502651 L57.0981445,17.9502651 L57.0981445,13.3221959 L38.4427316,13.3221959 L38.4427316,11.0081613 L47.6392299,11.0081613 Z M50.0129046,23.5564314 L38.4904436,23.5564314 L38.4904436,21.2423968 L51.7663225,21.2423968 L51.7663225,14.8370536 L55.0345982,14.8370536 L55.0345982,21.2423968 L60.4022042,21.2423968 L60.4022042,23.5564314 L55.7860631,23.5564314 L57.2889927,25.7750419 C57.5673144,26.1885484 57.9012955,26.3952985 58.2909459,26.3952985 L60.4022042,26.3952985 L60.4022042,28.7212612 L57.1577846,28.7212612 C56.5613809,28.7212612 56.1379407,28.6874655 55.8874512,28.619873 C55.6369616,28.5522806 55.4182836,28.4349897 55.2314104,28.2679967 C55.0445373,28.1010036 54.8636309,27.8823256 54.6886858,27.6119559 L52.9710519,25.1190011 L47.1501814,28.0413644 C46.5140175,28.3673984 45.9633464,28.5940284 45.4981515,28.7212612 C45.0329567,28.8484939 44.4544538,28.9121094 43.7626256,28.9121094 L38.4427316,28.9121094 L38.4427316,26.5742187 L42.5698242,26.5742187 C43.0628512,26.5742187 43.4962314,26.5284952 43.8699777,26.4370466 C44.243724,26.345598 44.7208397,26.1567397 45.3013393,25.870466 L50.0129046,23.5564314 Z M38.4427316,16.96024 L41.6036551,16.96024 L42.0449916,17.4970006 C42.1960806,17.6878497 42.3372273,17.8111046 42.4684361,17.866769 C42.5996449,17.9224333 42.8242869,17.9502651 43.1423689,17.9502651 L49.1898717,17.9502651 L49.1898717,19.8229632 L42.1761998,19.8229632 C41.6434125,19.8229632 41.1921405,19.7653117 40.8223703,19.650007 C40.4526,19.5347023 40.1245829,19.2742766 39.8383092,18.8687221 L38.4427316,16.96024 Z M38.6932199,14.2406529 L41.9137835,14.2406529 L42.2119838,14.5507812 C42.3789768,14.7336784 42.5300635,14.8549453 42.6652483,14.9145857 C42.8004332,14.974226 43.0191112,15.0040458 43.3212891,15.0040458 L49.0944475,15.0040458 L49.0944475,16.8886719 L42.343192,16.8886719 C41.4207543,16.8886719 40.8422515,16.7833088 40.607666,16.5725795 C40.3730806,16.3618502 40.1762703,16.1491361 40.0172294,15.9344308 L38.6932199,14.2406529 Z M75.9103681,17.890625 L70.483122,17.890625 C70.1173278,18.1609947 69.7952746,18.3538289 69.5169529,18.4691336 C69.2386312,18.5844384 68.813203,18.6420898 68.2406555,18.6420898 L64.8411717,18.6420898 L64.8411717,16.1729911 L66.6184457,16.1729911 C67.2387055,16.1729911 67.6860015,16.0835319 67.9603472,15.9046108 C68.2346928,15.7256897 68.4831906,15.4215284 68.705848,14.9921177 L69.0636884,14.288365 L64.8411717,14.288365 L64.8411717,11.8073382 L86.2758117,11.8073382 L86.2758117,14.288365 L72.4631722,14.288365 L71.8429155,15.4215262 L79.0593636,15.4215262 L79.0593636,25.3694894 C79.0593636,25.957941 79.019604,26.4529486 78.9400835,26.8545271 C78.860563,27.2561055 78.7194163,27.5940625 78.516639,27.8684082 C78.3138618,28.1427539 77.9739168,28.35348 77.4967939,28.5005929 C77.019671,28.6477058 76.5823148,28.7212612 76.1847124,28.7212612 L73.2981332,28.7212612 L73.2981332,26.2521624 L74.8010629,26.2521624 C75.2304735,26.2521624 75.5227069,26.178607 75.6777718,26.0314941 C75.8328368,25.8843812 75.9103681,25.6040757 75.9103681,25.1905692 L75.9103681,17.890625 Z M64.8411717,23.6637835 L64.8411717,21.1946847 L67.1313502,21.1946847 C68.2764452,21.1946847 69.1113978,20.828896 69.6362331,20.0973075 L70.3876979,19.0357143 L74.03767,19.0357143 L71.6162833,22.2085658 C70.8687907,23.1787158 69.8151601,23.6637835 68.4553597,23.6637835 L64.8411717,23.6637835 Z M64.8411717,28.7570452 L64.8411717,26.2879464 L67.5369027,26.2879464 C67.9822174,26.2879464 68.3798139,26.2302949 68.729704,26.1149902 C69.0795942,25.9996855 69.3976714,25.7392598 69.6839451,25.3337054 L70.8767464,23.6637835 L74.4432224,23.6637835 L72.3200361,26.6100028 C71.6679681,27.5165363 71.0835013,28.1010032 70.5666181,28.3634208 C70.0497349,28.6258384 69.3062295,28.7570452 68.3360796,28.7570452 L64.8411717,28.7570452 Z M79.9062526,19.2742746 L79.9062526,16.7932478 L80.9201337,16.7932478 C81.3336403,16.7932478 81.6179217,16.7236684 81.7729867,16.5845075 C81.9280516,16.4453467 82.0970301,16.2207047 82.2799272,15.9105748 L82.7689758,15.0756138 L86.1088195,15.0756138 L84.4388977,17.7117048 C84.0651514,18.2922044 83.6834588,18.6977528 83.2938084,18.9283622 C82.904158,19.1589716 82.3475229,19.2742746 81.6238865,19.2742746 L79.9062526,19.2742746 Z M80.2163809,20.2762277 L83.3415204,20.2762277 L84.0810573,24.8923689 C84.1764819,25.5285328 84.2937728,25.9320932 84.4329337,26.1030622 C84.5720945,26.2740313 84.7530009,26.3595145 84.9756583,26.3595145 L86.538228,26.3595145 L86.538228,28.6377651 L83.7351449,28.6377651 C83.106933,28.6377651 82.6357812,28.5105342 82.3216753,28.2560686 C82.0075694,28.0016031 81.7809394,27.7053937 81.6417785,27.3674316 C81.5026177,27.0294696 81.4091825,26.7173563 81.3614702,26.4310826 L80.2163809,20.2762277 Z M64.5787554,11.3779297 L64.5787554,7.50132533 L73.4770534,7.50132533 L74.03767,6.4874442 L76.7691851,6.4874442 L77.2105216,7.50132533 L86.2042437,7.50132533 L86.2042437,11.1990095 L83.1148882,11.1990095 L83.1148882,9.97042411 L67.5965428,9.97042411 L67.5965428,11.3779297 L64.5787554,11.3779297 Z M104.921043,13.2267718 L101.306855,13.2267718 L101.306855,10.9365932 L104.921043,10.9365932 L104.921043,9.82728795 L101.449991,9.82728795 L101.449991,7.54903739 L104.921043,7.54903739 L104.921043,6.70214844 L107.962687,6.70214844 L107.962687,7.54903739 L111.887003,7.54903739 L111.887003,9.82728795 L107.962687,9.82728795 L107.962687,10.9365932 L112.065923,10.9365932 L112.065923,13.2267718 L107.962687,13.2267718 L107.962687,14.0975167 L112.149419,14.0975167 L112.149419,16.3996233 L100.960943,16.3996233 L100.960943,14.0975167 L104.921043,14.0975167 L104.921043,13.2267718 Z M106.471685,26.6457868 L108.141607,26.6457868 C108.761867,26.6457868 109.071992,26.4827723 109.071992,26.1567383 L109.071992,25.894322 L104.360426,25.894322 L104.360426,28.8047573 L101.449991,28.8047573 L101.449991,17.1391602 L112.018211,17.1391602 L112.018211,25.7273298 C112.018211,26.1965007 111.956584,26.6616885 111.833327,27.1229074 C111.71007,27.5841262 111.517236,27.9320231 111.254818,28.1666085 C110.992401,28.401194 110.616672,28.5741484 110.127621,28.6854771 C109.63857,28.7968058 109.151514,28.8524693 108.666439,28.8524693 L106.471685,28.8524693 L106.471685,26.6457868 Z M109.071992,23.6637835 L109.071992,22.6976144 L104.360426,22.6976144 L104.360426,23.6637835 L109.071992,23.6637835 Z M104.360426,19.3935547 L104.360426,20.4074358 L109.071992,20.4074358 L109.071992,19.3935547 L104.360426,19.3935547 Z M101.187575,28.8524693 L100.221406,28.8524693 C99.275112,28.8524693 98.6966092,28.5741518 98.4858799,28.0175084 C98.2751506,27.460865 98.1618356,26.9757973 98.1459315,26.5622907 L97.740379,16.7097517 L100.25719,16.7097517 L100.650814,25.5961217 C100.650814,25.7154024 100.690574,25.8625131 100.770094,26.0374581 C100.849615,26.2124032 100.956966,26.2998744 101.092151,26.2998744 L101.187575,26.2998744 L101.187575,28.8524693 Z M97.4063947,15.9105748 L97.4063947,28.9001814 L94.4482474,28.9001814 L94.4482474,15.9105748 L90.5120029,15.9105748 L90.5120029,13.2625558 L94.4482474,13.2625558 L94.4482474,6.74986049 L97.4063947,6.74986049 L97.4063947,13.2625558 L100.662742,13.2625558 L100.662742,15.9105748 L97.4063947,15.9105748 Z M90.6193551,28.9478934 L90.6193551,26.6100028 L90.9175554,26.6100028 C91.0606923,26.6100028 91.1441875,26.5026517 91.1680437,26.2879464 C91.1918998,26.0732411 91.2117796,25.7829957 91.2276837,25.4172015 L91.5855241,16.7097517 L94.173903,16.7097517 L93.6371424,26.6457868 C93.5973822,27.2899028 93.501959,27.8346099 93.3508701,28.2799247 C93.1997812,28.7252394 92.5835067,28.9478934 91.502028,28.9478934 L90.6193551,28.9478934 Z M90.7028511,6.96456473 L92.9930297,6.96456473 L93.23159,9.38595145 C93.2554461,9.68017725 93.2872538,9.86505961 93.3270141,9.94060407 C93.3667743,10.0161485 93.4303898,10.0539202 93.5178623,10.0539202 L94.0546229,10.0539202 L94.0546229,12.2486747 L92.7663975,12.2486747 C92.1699938,12.2486747 91.7326377,12.097588 91.454316,11.7954102 C91.1759943,11.4932323 91.0129797,11.0002127 90.9652674,10.3163365 L90.7028511,6.96456473 Z M101.056367,6.8452846 L100.79395,10.2328404 C100.762142,10.5827305 100.660755,10.9922549 100.489786,11.4614258 C100.318817,11.9305967 99.8198335,12.1651786 98.9928205,12.1651786 L97.8835152,12.1651786 L97.8835152,9.97042411 L98.2413556,9.97042411 C98.3288281,9.97042411 98.4003955,9.90680867 98.4560599,9.77957589 L98.5276279,9.48137556 C98.53558,9.43366327 98.5435319,9.40185555 98.551484,9.38595145 L98.7661882,6.8452846 L101.056367,6.8452846 Z M116.600315,26.0732422 L119.129054,26.0732422 C119.781121,26.0732422 120.21649,26.0553503 120.435171,26.0195661 C120.653852,25.9837819 120.930182,25.8148034 121.264168,25.5126256 L125.415117,21.7672294 L125.415117,17.5447126 L116.719595,17.5447126 L116.719595,15.0756138 L133.514238,15.0756138 C134.198114,15.0756138 134.540047,14.7972963 134.540047,14.2406529 L134.540047,13.441476 L116.815019,13.441476 L116.815019,10.9723772 L134.540047,10.9723772 L134.540047,9.38595145 L116.600315,9.38595145 L116.600315,6.92878069 L137.879891,6.92878069 L137.879891,15.3261021 C137.879891,15.9463619 137.704948,16.4711893 137.355058,16.9005999 C137.005168,17.3300105 135.923705,17.5447126 134.110638,17.5447126 L128.671464,17.5447126 L128.671464,21.8149414 L132.536141,25.5126256 C132.854223,25.8227555 133.220011,25.9937219 133.633518,26.0255301 C134.047024,26.0573383 134.492332,26.0732422 134.969455,26.0732422 L137.832179,26.0732422 L137.832179,28.7212612 L133.97943,28.7212612 C132.913856,28.7212612 132.241918,28.6993934 131.963596,28.6556571 C131.685274,28.6119208 131.402981,28.4667981 131.116707,28.2202846 L126.906118,24.6418806 L123.303858,27.8385882 C122.834687,28.2520947 122.383415,28.5085444 121.950029,28.607945 C121.516642,28.7073456 120.874524,28.7570452 120.023655,28.7570452 L116.600315,28.7570452 L116.600315,26.0732422 Z M123.029514,20.6221401 L123.029514,22.8765346 L120.154863,22.8765346 C119.494843,22.8765346 119.039595,22.7771355 118.789105,22.5783343 C118.538616,22.379533 118.306022,22.0057924 118.091316,21.457101 L116.982011,18.6898019 L119.904374,18.6898019 L120.500775,20.1927316 C120.564391,20.3676767 120.629995,20.4829796 120.697587,20.538644 C120.76518,20.5943083 120.98187,20.6221401 121.347664,20.6221401 L123.029514,20.6221401 Z M131.068995,22.7453265 L131.068995,20.586356 L132.691205,20.586356 C133.406889,20.586356 133.844245,20.5505723 134.003286,20.4790039 C134.162327,20.4074355 134.29751,20.2205651 134.408839,19.9183873 L134.874031,18.6420898 L137.999171,18.6420898 L136.98529,21.1589007 C136.746728,21.7394002 136.470399,22.1489246 136.156293,22.387486 C135.842187,22.6260475 135.462482,22.7453265 135.017167,22.7453265 L131.068995,22.7453265 Z" id="logo-chinese"></path>
                </g>
            </g>
        </g>
    </g>
</svg>