<svg id="Layer_1" data-name="Layer 1" xmlns="http://www.w3.org/2000/svg" viewBox="0 0 1024 701.21"><defs><style>.cls-1{fill:#6cc35c;}.cls-2{fill:#fff;}.cls-3{fill:#5bac50;}.cls-4{fill:#e6e6e6;}.cls-5{fill:#ebd9c9;}.cls-6{fill:#55535a;}</style></defs><g id="toys"><g id="Group_431" data-name="Group 431"><circle id="Ellipse_114" data-name="Ellipse 114" class="cls-1" cx="654.66" cy="369.5" r="331.63"/><path id="Path_3146" data-name="Path 3146" class="cls-2" d="M370.4,359.73a271.94,271.94,0,0,1,0,342,333.64,333.64,0,0,0,36.21,49.18c111.57-125.59,111.57-314.78,0-440.37A333.12,333.12,0,0,0,370.4,359.73Z" transform="translate(0 -161.4)"/><path id="Path_3147" data-name="Path 3147" class="cls-2" d="M902.66,310.56c-111.55,125.6-111.55,314.77,0,440.37a332.41,332.41,0,0,0,36.21-49.18,272,272,0,0,1,0-342A331.88,331.88,0,0,0,902.66,310.56Z" transform="translate(0 -161.4)"/><path id="Path_3148" data-name="Path 3148" class="cls-3" d="M737.43,209.45l-3.1,9.5a63.56,63.56,0,0,0,30.81,76.11A295.55,295.55,0,0,1,904.43,446.39,114.28,114.28,0,0,1,801,603.34h-6l-89,73.91L406.61,714.08,397,739.58c115.38,142.3,324.28,164.14,466.58,48.76s164.14-324.27,48.77-466.58A331.75,331.75,0,0,0,737.44,209.44Z" transform="translate(0 -161.4)"/><path id="Path_3149" data-name="Path 3149" class="cls-4" d="M859.88,371.23a280,280,0,0,1,37.66,59.4,272.82,272.82,0,0,1,41.38-70.78h0c-2.53-4.31-5.3-8.56-8.08-12.74-.26-.38-.54-.76-.79-1.14q-3.7-5.5-7.59-10.83c-.65-.9-1.35-1.78-2-2.67-2.26-3-4.58-6-6.94-9-.79-1-1.62-2-2.43-3-2.31-2.82-4.66-5.61-7.07-8.34-.42-.49-.85-1-1.27-1.44A333,333,0,0,0,859.88,371.23Z" transform="translate(0 -161.4)"/><path id="Path_3150" data-name="Path 3150" class="cls-4" d="M881,568.24a111.3,111.3,0,0,1-54.71,31.88,330.76,330.76,0,0,0,76.38,150.79q5.06-5.68,9.86-11.61h0q4.74-5.88,9.26-12l.14-.19q4.46-6.06,8.65-12.33l.15-.22q4.2-6.33,8.11-12.79A271.16,271.16,0,0,1,881,568.24Z" transform="translate(0 -161.4)"/><path id="Path_3151" data-name="Path 3151" class="cls-2" d="M781.6,684.57A113.61,113.61,0,0,0,799.42,671c82-75-15.8-207.5-111.08-150.31-22.83,13.7-44,38.55-58.14,81.4H199.91c-14.2-42.85-35.39-67.7-58.14-81.4C46.51,463.47-51.29,596,30.69,671a14.1,14.1,0,1,1,0,27.21c-82,75,15.82,207.5,111.08,150.31,22.84-13.71,44-38.55,58.14-81.41H630.13c14.19,42.86,35.39,67.7,58.14,81.41,95.27,57.19,193.06-75.32,111.07-150.31A114.87,114.87,0,0,0,781.6,684.57Z" transform="translate(0 -161.4)"/><path id="Path_3152" data-name="Path 3152" class="cls-5" d="M688.34,848.49c95.28,57.19,193.07-75.32,111.08-150.31a14.1,14.1,0,1,1,0-27.21c58.14-53.2,25.83-135.34-31.88-158.17,5.06,55,2,188.93-146.22,188.93H216.07a61.93,61.93,0,0,0-55.2,33.79c-13.78,27-37.43,61.25-70.78,67.66a54.23,54.23,0,0,0-38,28.84l-7.52,14.83a87.33,87.33,0,0,0,97.12,1.64c22.84-13.71,44-38.55,58.14-81.41H630.05C644.36,809.94,665.51,834.78,688.34,848.49Z" transform="translate(0 -161.4)"/></g><g id="Group_432" data-name="Group 432"><path id="Path_3153" data-name="Path 3153" class="cls-6" d="M973.74,326.6a345.43,345.43,0,0,0-35.52-48.16,11.39,11.39,0,0,0-2-2.4,2.69,2.69,0,0,0-.27-.2c-126.51-141.37-343.68-153.42-485-26.9a341.38,341.38,0,0,0-26.9,26.9l-.28.2a11.54,11.54,0,0,0-2,2.39,344.93,344.93,0,0,0-35.52,48.17,11.39,11.39,0,0,0-1.7,2.82,342,342,0,0,0-48.56,176c0,4.13.08,8.3.23,12.39A12.35,12.35,0,1,0,360.8,517c-.13-3.79-.21-7.68-.21-11.51a317.36,317.36,0,0,1,36.65-148.37,256.49,256.49,0,0,1,46.59,148.37c0,3.57-.06,7.21-.21,10.8a12.35,12.35,0,0,0,11.82,12.86H456a12.34,12.34,0,0,0,12.32-11.85c.17-3.91.25-7.9.25-11.81A285.17,285.17,0,0,0,410.8,333.78,321.22,321.22,0,0,1,432,304.45a318.87,318.87,0,0,1,71.23,201c0,4.37-.09,8.84-.26,13.14a12.36,12.36,0,0,0,11.84,12.84h.5a12.33,12.33,0,0,0,12.34-11.84c.19-4.68.29-9.43.29-14.14a343.56,343.56,0,0,0-79.43-219.8c121.12-127.83,322.93-133.27,450.76-12.15q6.24,5.91,12.16,12.15a341.49,341.49,0,0,0-76.81,177.17,12.35,12.35,0,0,0,10.73,13.78h0a13.1,13.1,0,0,0,1.53.1,12.34,12.34,0,0,0,12.23-10.84,316.91,316.91,0,0,1,68.82-161.38,321.93,321.93,0,0,1,21.19,29.29,284.12,284.12,0,0,0,0,343.38A318.93,318.93,0,0,1,928,706.48a320.1,320.1,0,0,1-38.54-60,12.34,12.34,0,1,0-22.27,10.66c0,.09.08.18.13.27a344.36,344.36,0,0,0,44.16,67.91q-8,8.43-16.61,16.3a12.35,12.35,0,1,0,16.64,18.26,344.2,344.2,0,0,0,62.51-76,13,13,0,0,0,1.39-2.36,343.34,343.34,0,0,0,0-352.12A12,12,0,0,0,973.74,326.6Zm-11.1,327.18a259.48,259.48,0,0,1,0-296.68A318.68,318.68,0,0,1,962.64,653.78Z" transform="translate(0 -161.4)"/><path id="Path_3154" data-name="Path 3154" class="cls-6" d="M58.5,490l-.77.58A12.36,12.36,0,0,0,72.9,510.07h0l.45-.34A12.35,12.35,0,0,0,58.53,490h0Z" transform="translate(0 -161.4)"/><path id="Path_3155" data-name="Path 3155" class="cls-6" d="M47.63,654.8q2.67,2.46,5.16,4.49c-1.66,1.38-3.38,2.87-5.16,4.5A103.42,103.42,0,0,0,35.42,805.35a107.25,107.25,0,0,0,84.23,44,103.62,103.62,0,0,0,53.74-15.65A149.36,149.36,0,0,0,234,754.12H442.24a345,345,0,0,0,203.13,93.64h1.26a12.35,12.35,0,0,0,1.27-24.65,320,320,0,0,1-168.11-69.05h167a149.39,149.39,0,0,0,60.57,79.63,106.46,106.46,0,0,0,125.77-170c-1.78-1.63-3.5-3.12-5.15-4.5,1.65-1.36,3.37-2.87,5.15-4.49a106.46,106.46,0,0,0-125.77-170,149.43,149.43,0,0,0-60.57,79.63H234.08a149.31,149.31,0,0,0-60.58-79.63A103.27,103.27,0,0,0,109,469.52a12.35,12.35,0,1,0,2.68,24.56h0a77.71,77.71,0,0,1,49.15,11.74,130.83,130.83,0,0,1,52.8,74.69A12.35,12.35,0,0,0,225.4,589H655.62a12.36,12.36,0,0,0,11.73-8.47,130.71,130.71,0,0,1,52.8-74.69,77.5,77.5,0,0,1,105.47,22,78.36,78.36,0,0,1-9.08,108.62,104.32,104.32,0,0,1-15.66,12,12.35,12.35,0,0,0,0,21.37,105.43,105.43,0,0,1,15.69,12,78.37,78.37,0,0,1,9.07,108.61,77.47,77.47,0,0,1-105.46,22,130.7,130.7,0,0,1-52.81-74.7,12.36,12.36,0,0,0-11.73-8.47H225.19a12.34,12.34,0,0,0-11.73,8.47,130.79,130.79,0,0,1-52.81,74.7,77.47,77.47,0,0,1-105.46-22,78.37,78.37,0,0,1,9.07-108.61,103.25,103.25,0,0,1,15.67-12,12.39,12.39,0,0,0,0-21.39,104,104,0,0,1-15.69-12,76.54,76.54,0,0,1-18-94A12.35,12.35,0,0,0,24,531.65,101.37,101.37,0,0,0,47.63,654.8Z" transform="translate(0 -161.4)"/></g></g></svg>